<svg id="Capa_1" data-name="Capa 1" xmlns="http://www.w3.org/2000/svg" viewBox="0 0 1043.77 994.87"><defs><style>.cls-1,.cls-6{font-size:96.62px;}.cls-1{font-family:BalooDa2-SemiBold, "Baloo Da 2";font-weight:600;}.cls-2{letter-spacing:0em;}.cls-3{letter-spacing:-0.01em;}.cls-4{font-size:162.19px;font-family:BalooDa2-ExtraBold, "Baloo Da 2";font-weight:800;letter-spacing:-0.05em;}.cls-5{letter-spacing:-0.04em;}.cls-6{font-family:BalooDa2-Bold, "Baloo Da 2";font-weight:700;}</style></defs><title>logo</title><path d="M7136.56,7217.5s-.81,1.21-1.87,3a52.18,52.18,0,0,0-6.06,14.09c-.58,2-.91,3.43-.91,3.43a13.78,13.78,0,0,0,3.19-1.81,16,16,0,0,0,6.53-15.18A13.89,13.89,0,0,0,7136.56,7217.5Z" transform="translate(-6677.61 -6702.06)"/><path d="M7119.76,7252.2a36.77,36.77,0,0,0-4.42,5,36,36,0,0,0-3.24,5.84c-.77,1.67-1.22,2.9-1.22,2.9a11.77,11.77,0,0,0,3.13-.86,13.22,13.22,0,0,0,8.31-11.74,11.55,11.55,0,0,0-.22-3.25S7121.09,7250.92,7119.76,7252.2Z" transform="translate(-6677.61 -6702.06)"/><path d="M7102.53,7280.52a15.6,15.6,0,0,0-3.9,2.8,16,16,0,0,0-2.6,4c-.6,1.26-1,2.26-1,2.26a8,8,0,0,0,2.56.05,8.14,8.14,0,0,0,7.31-7.68,8.13,8.13,0,0,0-.18-2.56S7103.76,7279.85,7102.53,7280.52Z" transform="translate(-6677.61 -6702.06)"/><path d="M7081.13,7299.91c-1.9,1.1-2,4.41-2,4.41s2.94,1.53,4.84.43,2-4.41,2-4.41S7083,7298.81,7081.13,7299.91Z" transform="translate(-6677.61 -6702.06)"/><path d="M7156,7254a3.73,3.73,0,1,0-4.32,6A25.06,25.06,0,0,0,7156,7254Z" transform="translate(-6677.61 -6702.06)"/><path d="M7142.11,7278.73a17.26,17.26,0,0,0,3-5.21,13.09,13.09,0,0,0,.68-2.41l-5.42,6.17-5.25,6.31a14.72,14.72,0,0,0,2.28-1.05A17.42,17.42,0,0,0,7142.11,7278.73Z" transform="translate(-6677.61 -6702.06)"/><path d="M7126,7298a46,46,0,0,0,5.42-8.45,45,45,0,0,0-12.58,15.49A45.87,45.87,0,0,0,7126,7298Z" transform="translate(-6677.61 -6702.06)"/><path d="M7002.83,7252a16.21,16.21,0,0,0,6.43-1.9,16.54,16.54,0,0,0,5.1-4.35,13.46,13.46,0,0,0,1.49-2.34l-2.25,1.52c-1.38.91-3.28,2.05-5.41,3.21s-4.12,2.12-5.63,2.78l-2.51,1.06A13.32,13.32,0,0,0,7002.83,7252Z" transform="translate(-6677.61 -6702.06)"/><path d="M7120.53,7220a125.27,125.27,0,0,0-15.56-5.88,124,124,0,0,0-16.21-3.74,123.73,123.73,0,0,0,31.77,9.62Z" transform="translate(-6677.61 -6702.06)"/><path d="M7099.69,7244.74a151.8,151.8,0,0,0-16-9,150.15,150.15,0,0,0-17-7,149.67,149.67,0,0,0,32.94,15.94Z" transform="translate(-6677.61 -6702.06)"/><path d="M7065.38,7257.73a133.33,133.33,0,0,0,19.88,11.42s-8.28-6.08-18.6-13.26-18.93-12.79-18.93-12.79A133.55,133.55,0,0,0,7065.38,7257.73Z" transform="translate(-6677.61 -6702.06)"/><path d="M6866.62,7501l2.18-1-2.3.66c-1.47.45-3.63,1-6.3,1.6a105.4,105.4,0,0,1-42.26.58c-2.69-.52-4.86-1-6.34-1.42l-2.32-.6,2.21.93a63.67,63.67,0,0,0,6.18,2.18,71.24,71.24,0,0,0,42.83-.59A63.14,63.14,0,0,0,6866.62,7501Z" transform="translate(-6677.61 -6702.06)"/><path d="M6759.73,7405a14.07,14.07,0,0,0,.27,7,11.33,11.33,0,0,0,1.14,2.65s-.07-1.11,0-2.81a35.17,35.17,0,0,1,2.77-12.51c.68-1.55,1.22-2.52,1.22-2.52a11.21,11.21,0,0,0-2.16,1.91A14.1,14.1,0,0,0,6759.73,7405Z" transform="translate(-6677.61 -6702.06)"/><path d="M6869.46,7511.12c-6.67,4-12.89,7.39-17.47,9.7l-7.48,3.66s3.08-.82,7.93-2.64a108.63,108.63,0,0,0,34.41-20.83c3.86-3.45,6-5.81,6-5.81l-6.71,4.94C6882,7503.13,6876.12,7507.08,6869.46,7511.12Z" transform="translate(-6677.61 -6702.06)"/><path d="M7290.33,7060.7c-2.22,2.27-4.41,4.55-6.55,6.89l-1.62,1.73-.79.85-.66.64a11.6,11.6,0,0,1-2.95,2,12.06,12.06,0,0,1-13.13-1.64,11.91,11.91,0,0,1-3.69-12.72,12.08,12.08,0,0,1,1.51-3.21l.51-.73.73-.91,1.5-1.83c2-2.43,4-4.92,5.93-7.41,7.84-9.94,15.47-20.06,22.46-30.75-9.64,8.38-18.65,17.31-27.44,26.43-2.22,2.27-4.42,4.55-6.56,6.88l-1.61,1.74-.82.89-.94,1.15a19.46,19.46,0,0,0-.72,22.74l-96.08,116.92a10,10,0,0,0-3.26.5,8.68,8.68,0,0,0-.5-2.8,5.88,5.88,0,0,0-3.11-3.48,5.38,5.38,0,0,0-2.59-.34c-.77.08-1.29.2-1.9.31-1.19.24-2.37.52-3.54.81a68.57,68.57,0,0,1-6.86,1.54,31.86,31.86,0,0,1-7.11-.3l-8-.93-8.56-1a1.58,1.58,0,0,0-1,.08l-.82.25-1,.31-2,.63-4.13,1.27-10.09,3.2-9.33,3-.18,0-.4.23h0l-.18.11-86.42,49.63c-57.45,35.51-101.85,65.34-149.91,98.78-1-.09-2.19-.19-3.67-.22a89.32,89.32,0,0,0-17,.94,93.52,93.52,0,0,0-24.44,7.13,91,91,0,0,0-26.06,17.42,94,94,0,0,0-23.9,37.07c-.27.77-.46,1.5-.71,2.25-.28.54-.56,1.07-.82,1.64-.37.82-.75,1.67-1.08,2.56q-.25.66-.48,1.35a16,16,0,0,0-.54,1.83q-.33,1.32-.66,2.67l-.32,1.38-.16.7-.08.35c0,.1.2.06.28.1l2.8.42c.46.07,1,.14,1.47.19a6,6,0,0,1,.74.12l.53.1a29.78,29.78,0,0,1,15.15,8.29c.17,1.08.34,2.15.54,3.19,2.12,10.92,5.37,20.78,7,30.47a29.2,29.2,0,0,1,.65,6.78,14.26,14.26,0,0,1-1.78,6c-1,2-2.31,4.63-2.22,7.55a12.41,12.41,0,0,0,2.78,7.38,30.07,30.07,0,0,0,5,4.81,37.57,37.57,0,0,0,5.47,3.71,17.28,17.28,0,0,0,6.31,2,12,12,0,0,0,4.28-.32c1.19.57,2.67,1.33,4.43,2.25a122.73,122.73,0,0,1,19.26,12.84A121.24,121.24,0,0,1,6832.8,7526c2,2.07,3.88,4.3,5.81,6.64l2.81,3.65,2.07,2.81.66.89.33.45.17.22c.06.06.15-.06.23-.08l1.95-1.06,5.18-2.81,4.45-2.49q4.47-2.55,9-5.37c6.08-3.75,12.25-7.85,18.4-12.28a309,309,0,0,0,32.82-27.3,117,117,0,0,0,9.07-9.57,46.8,46.8,0,0,0,11.16-17.15,43.74,43.74,0,0,0,2.59-11.22,35.91,35.91,0,0,0-.84-14,24.16,24.16,0,0,0-.9-2.69,40.3,40.3,0,0,0-2.18-5.45q4.95-6.48,9.84-13.26c13.62-18.93,25.71-37.51,36.88-54.23s21.39-31.67,30.46-43.87a108.11,108.11,0,0,1,13.1-15.54c3.46-3.15,7-5.63,10.38-6.7l3.35.65c5,2.95,11.22,6.5,18.16,10.36l-3.26,3.79a10.16,10.16,0,1,0,15.39,13.26l6.15-7.15c6.44,3.39,12.64,6.54,18.33,9.37l3,1.51,1,.5c.32,0,.61-.36.92-.52l1.68-1.2,3.75-2.83,6.68-5.13c3.15-2.46,5.79-4.57,7.87-6.26l1.39.7a5.56,5.56,0,0,0,4,.64,5,5,0,0,0,2.5-1.68c.17-.2.32-.4.47-.61l.24-.35.44-.64,1.7-2.54c1.07-1.68,2.11-3.29,3.1-4.83,1.93-3.1,3.58-5.91,4.93-8.29.24-.43.46-.83.69-1.23l1.93,1.24,5.54-7.4c1.4-1.9,2.82-3.85,4.28-5.84l2.77-3.92,1.34-1.93a6.4,6.4,0,0,0,.88-1.67,6,6,0,0,0,.35-2c0-.16,0-.31,0-.46l7.95-12.59a21.92,21.92,0,0,0-1.51-25.53l-8.46-10.41,13.29-15.44a10.14,10.14,0,0,0,1.72-10.3l95.39-116.08a20.19,20.19,0,0,0,5.85,1.56,19.91,19.91,0,0,0,11.51-2.36,19.63,19.63,0,0,0,4.66-3.62l1-1.08.77-.93,1.5-1.83c2-2.44,4-4.92,5.93-7.41,7.85-9.94,15.47-20.07,22.46-30.76C7308.14,7042.65,7299.12,7051.58,7290.33,7060.7Zm-193.82,135,10.12-3.11,7.37-2.33,8,.75c2.77.26,5.45.49,8,.67a35.32,35.32,0,0,0,8.27-.09,62.18,62.18,0,0,0,7.36-2.08c1.12-.36,2.2-.69,3.27-1,.51-.13,1.1-.29,1.46-.35a1.46,1.46,0,0,1,.73,0,2.15,2.15,0,0,1,1.19,1.26,6.28,6.28,0,0,1,.53,2.42c0,.29,0,.57,0,.85a10.28,10.28,0,0,0-1.22,1.16l-11.52,13.39L7095.49,7196Zm-293.34,188.74a22.3,22.3,0,0,0-.56,5.12l-7,7.86a43.51,43.51,0,0,1,8.21-15.15C6803.58,7382.93,6803.36,7383.65,6803.17,7384.41Zm-29.8,26.3a35.78,35.78,0,0,1,.26-4.05,14,14,0,0,1,2.26-6.6,11.43,11.43,0,0,1,1.19-1.14c.25-.24.54-.48.83-.71l.19.25L6783,7395a45.31,45.31,0,0,0-3.82,9Zm.71,10.84c-.23-2.24-.45-4.45-.59-6.65l4.56-6a33.78,33.78,0,0,0-.47,6.49c0,.89.07,1.57.11,2.08Zm4.37-6A46.8,46.8,0,0,1,6781,7408c2.59-6.12,7.67-13.73,14.73-20.8,1.6-1.6,3.22-3.12,4.83-4.57l3.08-2.17a29.71,29.71,0,0,0-10.48,19.66l-15.11,16.94C6778.18,7416.62,6778.29,7416.13,6778.45,7415.51Zm2.65-44a106.93,106.93,0,0,1,63.67-28.67c1.19-.13,2.2-.2,3.06-.24l-3.46,2.41c-2.46.37-5.92,1.07-10.16,2.16a117.86,117.86,0,0,0-58.82,36.19,101.62,101.62,0,0,0-6.61,8.23l-2.23,3.15,2.88-2.56c1.81-1.68,4.53-4,7.91-6.81a249.81,249.81,0,0,1,57.79-35.56c2.25-1,4.24-1.82,6-2.54-9.81,6.84-19.82,13.87-30.14,21.13l-11.78,7.84c-4.51,3-9.08,6.14-13.69,9.38-2.31,1.61-4.61,3.28-6.92,5-1.16.87-2.31,1.74-3.47,2.67-.58.49-1.15.91-1.74,1.46a12.47,12.47,0,0,0-4.27,6.54,24.35,24.35,0,0,0-1,4.69,49,49,0,0,0-.14,9c.16,2.5.43,4.92.7,7.28a27.68,27.68,0,0,0-2.26-2.18,24.45,24.45,0,0,0-11-5.32l-.2,0h0l0,0s-.06,0-.08-.07a5.77,5.77,0,0,1,.18-.86l.3-1.25.65-2.43a69.74,69.74,0,0,1,3-8.31c1-2.35,2-4.22,2.67-5.5s1.1-2,1.1-2l0,0A108.66,108.66,0,0,1,6781.1,7371.5Zm14.77,113.35a16.55,16.55,0,0,0,2.66.13,4.61,4.61,0,0,1-.32.73,5.71,5.71,0,0,1-1.35,1.75,8,8,0,0,1-6.59,1.9c-1.44,1.46-2.88,2.92-4.3,4.4-.43-.32-.85-.65-1.26-1l3.6-4a8,8,0,0,1-3.8-3.54l-3.78,3.75c-.37-.4-.73-.8-1.09-1.21,1.37-1.61,2.77-3.2,4.15-4.8a2.48,2.48,0,0,1,0-.27,5.43,5.43,0,0,1,0-.8s.26.13.69.31c17.21-20,35.18-39.37,52.66-59.18-19.69,19.63-39.89,38.73-59.32,58.73a14.46,14.46,0,0,1,1.85-4.78l50.21-57.81-47.64,48a31.58,31.58,0,0,0-.3-3.93l41-48.25L6781,7457.91c-.24-1.37-.45-2.74-.73-4.12l36.68-44.11-37.71,39.44c-.34-1.46-.65-2.93-1-4.4l33.42-41.07-34.41,36.76c-.37-1.63-.71-3.27-1.05-4.91l30.43-38.25-31.26,34.17c-.05-.24-.11-.48-.15-.71-.29-1.66-.52-3.3-.72-5L6793,7402c0,.61-.08,1.24-.06,1.79a24.85,24.85,0,0,0,.36,4.15c.18.94.28,1.49.28,1.49s0-.56.07-1.51a36.74,36.74,0,0,1,.4-4.06,43.46,43.46,0,0,1,.93-4.41l7.61-9.75a20,20,0,0,0,.17,2.6,18.43,18.43,0,0,0,.69,3.2s.18-1.37.43-3.19.77-4.57,1.44-7.4c.56-2.33,1.16-4.45,1.7-6.17.48-.46.91-.85,1.27-1.15l1.14-1-1.34.71-.05,0,13.43-9.45a34.92,34.92,0,0,0-2.42,4.9,35.33,35.33,0,0,0-2.34,13.24,29.66,29.66,0,0,0,.33,4.05c.16.92.24,1.46.24,1.46l.11-1.47c.05-.95.2-2.31.44-4a58.19,58.19,0,0,1,3.31-12.5,59.48,59.48,0,0,1,4-8.29q8.47-6,16.76-11.74A54.51,54.51,0,0,0,6829,7380a47.57,47.57,0,0,0-.8,6.5s.63-2.43,1.89-6.23a103.8,103.8,0,0,1,14.07-27.54c.39-.55.76-1.05,1.11-1.52q6.72-4.69,13.36-9.29a49.11,49.11,0,0,0-13.57,23.37,41.65,41.65,0,0,0-1.15,6.23s.75-2.31,2.21-5.88a90.09,90.09,0,0,1,15.82-25.21q1.14-1.28,2-2.22,6.85-4.74,13.68-9.42a54.29,54.29,0,0,0-12.45,23.61,48.3,48.3,0,0,0-1.14,6.23s.77-2.3,2.2-5.89a111.44,111.44,0,0,1,14.87-26l.6-.76q8.63-5.89,17.28-11.74a29,29,0,0,0-1.17,3.48,30.56,30.56,0,0,0-.77,11.42,25.12,25.12,0,0,0,1,4.62s0-1.81.16-4.65a59,59,0,0,1,1.81-10.82,62.1,62.1,0,0,1,1.95-6c11.78-7.94,23.73-15.87,36-23.91a41.17,41.17,0,0,0-2.16,3.61,45.15,45.15,0,0,0,7.32-6.73l.44-.54c18-11.72,37-23.73,57.61-36.48l85-48.8,42.53,10.72a9,9,0,0,1,.92,5.41,12.69,12.69,0,0,1-4.39,7.49,18.35,18.35,0,0,1-4,2.43,20.6,20.6,0,0,0-4.12,2.5,22.27,22.27,0,0,0-5.55,7.38,28.38,28.38,0,0,0-1.82,7.38c-.48,3.08-.93,6-2.56,8.36-1.5,2.18-3.82,3.64-6.28,5.18-2.71,1.7-5.52,3.46-7.22,6.32-1.46,2.46-1.83,5.27-2.18,8a19.49,19.49,0,0,1-1.76,6.93c-1.44,2.64-4,4.35-6.75,6.16a31.78,31.78,0,0,0-5.52,4.26,30.63,30.63,0,0,0-4.28,6.16c-.42.71-.84,1.43-1.27,2.14-1.21,1.94-4.43,6.54-8.38,7.27-.2,0-.4,0-.6.05-16.77-8-30.42-13.25-35.4-15.08l-.45-.23a4.32,4.32,0,0,0-1.19-.37l-.43-.15.18.11a4.17,4.17,0,0,0-4.19,2.3L7006,7321.83c-8.34,10.53-17.45,22.86-27.07,36.53q-11,9.62-21.69,19.58-15.16,14.19-30,28.75-23.09,22.68-45.57,46a18.58,18.58,0,0,1-2.75-.22q22.17-24.9,45.21-49.07,14.32-15,29.08-29.65c9.87-9.71,19.9-19.27,30.42-28.29-10.83,8.65-21.18,17.89-31.39,27.27s-20.22,19-30.13,28.68q-24.56,24.11-48.3,49a3.1,3.1,0,0,1-.45-.39l29.49-34.75q9.26-8.72,19.23-18.26c20.4-19.5,38.79-37.19,52.38-49.73,6.77-6.3,12.31-11.35,16.17-14.79l6-5.39-6.53,4.71c-4.2,3-10.19,7.56-17.44,13.35-14.54,11.52-34,28.26-54.42,47.8s-38.15,38-50.87,51.47c-3.83,4.05-7.2,7.64-10,10.69q-2.22,2.29-4.16,4.33-9.15,8.39-18.22,16.88c-1.67.65-3.61,1.44-5.83,2.46-1.51.68-3.16,1.5-4.89,2.39,18.88-19.74,38.56-38.81,57.88-58.18-24.41,22.31-49.29,44.13-72.86,67.46l-1.65,1.17c-1.71,1.16-3.48,2.4-5.35,3.46l66.23-69.93-75.55,72a13.89,13.89,0,0,1-2.11-.66c20.94-24.2,44.38-46.48,65.65-70.64-19.89,20.2-41.29,38.74-61.5,58.76C6795.24,7484.73,6795.57,7484.81,6795.87,7484.85Zm112.34-34.25c4.4-4.41,7.05-7.23,7.05-7.23s-2.21,3.17-6.23,8A146.78,146.78,0,0,1,6872,7483.1c-5.37,3.23-8.85,4.93-8.85,4.93s3.2-2.19,8.23-5.86,11.83-8.94,19-15.09S6903.8,7455,6908.21,7450.6Zm38.71-46.41c-15.32,17.89-27.79,29.42-37.8,36.71q12.54-13.55,25.24-26.95,10.38-10.84,20.86-21.59Q6951.16,7398.21,6946.92,7404.19ZM6880.63,7512c-6.06,4.37-12.08,8.47-18,12.3q-4.43,2.86-8.77,5.52l-7.74,4.66-.18.12c-.05,0-.09-.07-.13-.1l-.15-.16-.69-.86c-1-1.25-2.08-2.45-3.1-3.65-2.11-2.33-4.22-4.53-6.36-6.56a113.46,113.46,0,0,0-12.65-10.37,110.59,110.59,0,0,0-20.56-11.4c-1.62-.66-3-1.19-4.15-1.62.48-.14.94-.3,1.39-.47l.57-.28h.46l.35-.31.24-.2c.81-.68,2.14-1.76,3.94-3.07a73.12,73.12,0,0,1,6.34-4.1c1.8-1,3.76-2.07,5.88-3l.68-.33a67.12,67.12,0,0,1,7.5-2.81,59.35,59.35,0,0,1,6.74-1.7l.71-.13a48.22,48.22,0,0,1,5.4-.71s-2.76.81-7,2.33c-2.72,1-6.05,2.27-9.64,3.82-.93.4-1.86.81-2.81,1.24-1.95.88-3.79,1.73-5.55,2.57-2.93,1.4-5.58,2.72-7.68,3.82l-4.27,2.29-.64.34c10.2.12,19.42-.28,27.5-.95,2.88.16,6,.27,9.48.24a83.24,83.24,0,0,0,20.63-2.63c15-4.08,31.42-14.12,45.21-29.17a389.47,389.47,0,0,0,27.88-32.19c-1.08,2.12-2.34,4.51-3.78,7.14a140.68,140.68,0,0,1-11,17.3c-4.66,6.05-10.64,12.07-17.12,18.31A240.49,240.49,0,0,1,6863.9,7506c-4.93,3.24-9,5.72-11.94,7.36l-4.49,2.56s1.75-.58,4.87-1.77a140.26,140.26,0,0,0,13-5.72,153.68,153.68,0,0,0,38.13-27.18c6.57-6.33,12.57-12.85,17.07-19.58a107.06,107.06,0,0,0,9.72-18.85c1.41-3.48,2.5-6.52,3.38-9.14-.23.89-.49,1.84-.78,2.87a134.11,134.11,0,0,1-19.19,40c-1.68,2.35-3.11,4.26-4.15,5.53l-1.6,2,2.19-1.38a49.69,49.69,0,0,0,5.63-4.29,57.8,57.8,0,0,0,19.83-40.43,58.55,58.55,0,0,1-3.83,22.64,66.3,66.3,0,0,1-8.14,15.47,124.57,124.57,0,0,1-10,9.74C6903.82,7494.35,6892.73,7503.3,6880.63,7512Zm79.65-126.94q-14.05,13.34-27.93,26.89-18.83,18.51-37.32,37.37a45.57,45.57,0,0,1-5.46,2.07q19.52-21.63,39.66-42.74,14.31-15,29-29.71,9.6-9.57,19.47-18.85C6972.05,7368.06,6966.28,7376.43,6960.28,7385.08Zm197.53-148.57a16.24,16.24,0,0,1,1.12,18.94l-6.6,10.45,0,0-3.48-2.49c-4.52-3.25-8.57-6.25-11.95-8.8l-2.62-2a20.79,20.79,0,0,0-1.17-3.39,3.48,3.48,0,1,0-2,.91s0,0,0,0l-5.14-3.93a129.82,129.82,0,0,0,9.09,10.46c2.95,3.11,6.6,6.69,10.88,10.42l3.32,2.82.87.71a.87.87,0,0,1,.25.29.89.89,0,0,1,.11.53c-.07.23,0,.18-.32.58l-1.4,1.89c-.92,1.28-1.87,2.57-2.82,3.89l-4.16,5.92-2,2.88-.45.67v.06l-.06.18-.16,0a.26.26,0,0,1-.14,0l-.76-.42-3-1.62-5.56-2.95c-3.53-1.84-6.68-3.42-9.31-4.71-5.26-2.57-8.44-4-8.44-4s1.19,1,3.33,2.61a10.42,10.42,0,0,0-5,.47,16.91,16.91,0,0,0,4.83,1.76,16.41,16.41,0,0,0,3.41.23l.84.63c2.35,1.75,5.19,3.83,8.44,6.14l5.16,3.6,2.79,1.9,1.18.77-.87.94c-1.87,2-4.06,4.42-6.43,7.19l-3.68,4.41-1.91,2.38-.48.61-.23.28h0l-.06,0s0,0-.07-.06l-2-1c-8.91-4.26-17.26-6.36-23.1-8.49-2.94-1-5.3-1.93-6.93-2.6l-2.53-1.06s.71.67,2.08,1.81c1.05.86,2.5,2,4.33,3.18a13.33,13.33,0,0,0-2.56.45,10.13,10.13,0,0,0-1.93.77l2,.35c1.22.2,2.83.47,4.59.69l1.81.19c4.91,2.84,11.41,5.76,18.19,9a67.32,67.32,0,0,0-8.92,3.31,65.51,65.51,0,0,0-10.48,6,65.8,65.8,0,0,0,11.41-4l.26-.13-6.75,4-4,2.41c-.3.11-.39.28-.54.09l-.09-.08a1,1,0,0,0-.26-.17l-1.08-.65c-5.83-3.49-12.32-7.18-19.25-10.84-3.92-2.07-7.76-4-11.48-5.83,3.82-1.67,6.7-5.74,7.86-7.61.45-.72.88-1.46,1.3-2.2a29.32,29.32,0,0,1,4-5.75,31.27,31.27,0,0,1,5.16-4c2.83-1.86,5.74-3.8,7.44-6.9a21.36,21.36,0,0,0,2-7.68c.34-2.62.66-5.09,1.9-7.18,1.44-2.42,3.91-4,6.53-5.6s5.15-3.23,6.9-5.78c1.9-2.77,2.41-6.06,2.9-9.24a26.87,26.87,0,0,1,1.67-6.84,20.46,20.46,0,0,1,5-6.61,18.66,18.66,0,0,1,3.71-2.24,20.05,20.05,0,0,0,4.41-2.72,14.82,14.82,0,0,0,5.08-8.77,11.29,11.29,0,0,0-.41-5.08l7.06,1.79Zm86.55-142.59-11.11,14c-7.44,9.29-15.06,18.44-22.58,27.66-7.7,9.07-15.29,18.24-23.08,27.24s-15.6,18-23.66,26.76c7.16-9.52,14.56-18.85,22-28.14s15-18.44,22.57-27.67c7.69-9.08,15.29-18.24,23.07-27.24l11.72-13.48c4-4.42,7.9-8.91,11.95-13.28C7251.68,7084.53,7248,7089.19,7244.36,7093.92Z" transform="translate(-6677.61 -6702.06)"/><path d="M6832.27,7361.61a16,16,0,0,0-2.4,2,19.41,19.41,0,0,0-5.71,13.82,16.48,16.48,0,0,0,.27,3.14s.36-1.29.84-3a71.78,71.78,0,0,1,2.43-6.79c1.07-2.57,2.17-4.86,3.06-6.52Z" transform="translate(-6677.61 -6702.06)"/><path d="M6880.54,7342.56a71.15,71.15,0,0,1,4.17-9.54,72.28,72.28,0,0,1,5.49-8.84c1.6-2.17,2.71-3.48,2.71-3.48a25.69,25.69,0,0,0-3.53,2.73,30.81,30.81,0,0,0-9.93,18.87,26.76,26.76,0,0,0-.25,4.46S6879.65,7345.11,6880.54,7342.56Z" transform="translate(-6677.61 -6702.06)"/><path d="M6913.21,7321.67A103.09,103.09,0,0,1,6917,7312c1.66-3.67,3.37-6.92,4.72-9.24L6924,7299a29.69,29.69,0,0,0-3.16,3.09,35.64,35.64,0,0,0-5.85,9,35.15,35.15,0,0,0-2.84,10.32,28.86,28.86,0,0,0-.23,4.42Z" transform="translate(-6677.61 -6702.06)"/><path d="M6939.25,7303.23a2.72,2.72,0,1,0-2.57,4.65A13.24,13.24,0,0,0,6939.25,7303.23Z" transform="translate(-6677.61 -6702.06)"/><path d="M6932.88,7294a25.09,25.09,0,1,0-1.44,7.35A25.93,25.93,0,0,0,6932.88,7294Z" transform="translate(-6677.61 -6702.06)"/><path d="M6859.84,7348.57c1.36-3,2.67-5.66,3.68-7.6s1.68-3.17,1.68-3.17a24,24,0,0,0-2.6,2.53,29.12,29.12,0,0,0-4.79,7.32,28.77,28.77,0,0,0-2.36,8.43,24.39,24.39,0,0,0-.21,3.61l1.29-3.34C6857.33,7354.3,6858.49,7351.56,6859.84,7348.57Z" transform="translate(-6677.61 -6702.06)"/><path d="M6951,7288.23a88.79,88.79,0,0,1,6.59-9.47c1.86-2.32,3.12-3.73,3.12-3.73a33.14,33.14,0,0,0-3.93,2.95,37.73,37.73,0,0,0-12.18,20.12,31.08,31.08,0,0,0-.79,4.85s.65-1.76,1.85-4.5A90.14,90.14,0,0,1,6951,7288.23Z" transform="translate(-6677.61 -6702.06)"/><path d="M6974.65,7281.62a4.09,4.09,0,1,0-4.95,6.41A30,30,0,0,0,6974.65,7281.62Z" transform="translate(-6677.61 -6702.06)"/><path d="M6962.67,7283.66a76.07,76.07,0,0,0,6.12-11.5,76.33,76.33,0,0,0-14.11,21.78A75.53,75.53,0,0,0,6962.67,7283.66Z" transform="translate(-6677.61 -6702.06)"/><path d="M6786.78,7483c1.31.34,2.78.56,4.28.89.45.09.89.2,1.33.3,17.76-20.07,35.13-40.4,54-59.38C6825.67,7443.23,6806.4,7463.34,6786.78,7483Z" transform="translate(-6677.61 -6702.06)"/><path d="M7303,7227.34a61.88,61.88,0,0,0-3.55-6.82c-1.06-1.81-1.86-3-1.86-3a13.6,13.6,0,0,0-.89,3.55,16.09,16.09,0,0,0,6.53,15.18,13.78,13.78,0,0,0,3.19,1.81s-.33-1.42-.91-3.43A62.44,62.44,0,0,0,7303,7227.34Z" transform="translate(-6677.61 -6702.06)"/><path d="M7318.84,7257.19a36.11,36.11,0,0,0-4.42-5c-1.33-1.28-2.33-2.12-2.33-2.12a11.74,11.74,0,0,0-.23,3.25,13.22,13.22,0,0,0,8.31,11.74,11.77,11.77,0,0,0,3.13.86s-.45-1.23-1.22-2.9A36,36,0,0,0,7318.84,7257.19Z" transform="translate(-6677.61 -6702.06)"/><path d="M7335.55,7283.32a15.42,15.42,0,0,0-3.9-2.8c-1.23-.67-2.2-1.1-2.2-1.1a7.78,7.78,0,0,0-.18,2.56,8.14,8.14,0,0,0,7.3,7.68,8,8,0,0,0,2.56-.05s-.37-1-1-2.26A15.71,15.71,0,0,0,7335.55,7283.32Z" transform="translate(-6677.61 -6702.06)"/><path d="M7353.05,7299.91c-1.9-1.1-4.84.43-4.84.43s.14,3.32,2,4.41,4.84-.43,4.84-.43S7355,7301,7353.05,7299.91Z" transform="translate(-6677.61 -6702.06)"/><path d="M7275.87,7247a24.29,24.29,0,1,0,4.33,6A25.06,25.06,0,0,0,7275.87,7247Z" transform="translate(-6677.61 -6702.06)"/><path d="M7288.35,7271.11a14.18,14.18,0,0,0,.68,2.41,16.92,16.92,0,0,0,7.71,9,14.72,14.72,0,0,0,2.28,1.05l-5.25-6.31Z" transform="translate(-6677.61 -6702.06)"/><path d="M7302.76,7289.52a45.19,45.19,0,1,0,7.16,7A45.77,45.77,0,0,0,7302.76,7289.52Z" transform="translate(-6677.61 -6702.06)"/><path d="M7426,7248.18c-2.13-1.16-4-2.3-5.41-3.21l-2.25-1.52a13.46,13.46,0,0,0,1.49,2.34,16.54,16.54,0,0,0,5.1,4.35,16.25,16.25,0,0,0,6.44,1.9,13.24,13.24,0,0,0,2.77,0l-2.5-1.06C7430.11,7250.3,7428.12,7249.33,7426,7248.18Z" transform="translate(-6677.61 -6702.06)"/><path d="M7329.21,7214.14a125.27,125.27,0,0,0-15.56,5.88,123.62,123.62,0,0,0,16.21-3.74,125.06,125.06,0,0,0,15.57-5.88A123.94,123.94,0,0,0,7329.21,7214.14Z" transform="translate(-6677.61 -6702.06)"/><path d="M7367.43,7228.8a150.15,150.15,0,0,0-17,7,151.8,151.8,0,0,0-16,9,149.67,149.67,0,0,0,32.94-15.94Z" transform="translate(-6677.61 -6702.06)"/><path d="M7348.92,7269.15a134.47,134.47,0,0,0,37.53-26s-8.6,5.64-18.93,12.79S7348.92,7269.15,7348.92,7269.15Z" transform="translate(-6677.61 -6702.06)"/><path d="M7214.67,7125.85c-4.9-6-9.79-11.93-14.61-18l-11.11-14c-3.62-4.73-7.32-9.39-10.88-14.17,4.05,4.37,8,8.86,12,13.28l11.71,13.48q7.43,8.59,14.71,17.32c.63-.73,1.26-1.45,1.87-2.19l-39.62-48.21a19.46,19.46,0,0,0-.72-22.74l-.94-1.15-.82-.89-1.61-1.74c-2.14-2.33-4.34-4.61-6.55-6.88-8.8-9.12-17.81-18.05-27.45-26.43,7,10.69,14.62,20.81,22.46,30.75,1.95,2.49,3.91,5,5.93,7.41l1.5,1.83.73.91.51.73a11.78,11.78,0,0,1,1.51,3.21,11.93,11.93,0,0,1-3.68,12.72,12.08,12.08,0,0,1-13.14,1.64,11.78,11.78,0,0,1-2.95-2l-.65-.64-.8-.85-1.62-1.73c-2.14-2.34-4.33-4.62-6.55-6.89-8.79-9.12-17.81-18.05-27.46-26.42,7,10.69,14.61,20.82,22.46,30.76,1.94,2.49,3.91,5,5.93,7.41l1.5,1.83.77.93,1,1.08a19.63,19.63,0,0,0,4.66,3.62,19.46,19.46,0,0,0,17.36.8l40.75,49.59C7212.06,7128.8,7213.35,7127.31,7214.67,7125.85Z" transform="translate(-6677.61 -6702.06)"/><path d="M7685.61,7418.9l-.16-.7-.31-1.38c-.23-.9-.45-1.79-.67-2.67-.25-1-.38-1.35-.53-1.83s-.32-.91-.49-1.35c-.33-.89-.71-1.74-1.07-2.56-.27-.57-.55-1.1-.83-1.64-.25-.75-.43-1.48-.7-2.25a94.24,94.24,0,0,0-23.91-37.07,91,91,0,0,0-26.06-17.42,93.57,93.57,0,0,0-24.43-7.13,89.42,89.42,0,0,0-17-.94c-1.48,0-2.7.13-3.67.22-48.06-33.44-92.48-63.29-150-98.82l-86.34-49.59-.18-.11h0l-.4-.23-.17,0-9.34-3-10.09-3.2-4.13-1.27-2-.63-1-.31-.82-.25a1.58,1.58,0,0,0-1-.08l-8.56,1-8,.93a31.84,31.84,0,0,1-7.11.3,69.19,69.19,0,0,1-6.86-1.54c-1.17-.29-2.35-.57-3.53-.81-.61-.11-1.14-.23-1.9-.31a5.42,5.42,0,0,0-2.6.34,5.88,5.88,0,0,0-3.11,3.48,8.68,8.68,0,0,0-.5,2.8,10,10,0,0,0-3.25-.5l-51.43-62.58c-.61.7-1.2,1.41-1.81,2.11l3.27,3.87c7.52,9.23,15.14,18.37,22.57,27.67s14.84,18.62,22,28.14c-8.06-8.77-15.88-17.75-23.66-26.76s-15.38-18.17-23.08-27.24l-2.91-3.55c-1.16,1.36-2.28,2.74-3.4,4.14l-.34.47,49.44,60.17a10.12,10.12,0,0,0,1.73,10.3l13.29,15.44-8.46,10.41a21.9,21.9,0,0,0-1.52,25.53l7.95,12.59c0,.15,0,.3,0,.46a6.29,6.29,0,0,0,.35,2,6.39,6.39,0,0,0,.89,1.67c.44.64.89,1.28,1.33,1.93l2.78,3.92,4.27,5.84,5.54,7.4,1.93-1.24.69,1.23c1.35,2.38,3,5.19,4.94,8.29l3.09,4.83,1.7,2.54.44.64.24.35c.15.21.3.41.47.61a5,5,0,0,0,2.5,1.68,5.55,5.55,0,0,0,4-.64l1.4-.7c2.07,1.69,4.71,3.8,7.86,6.26l6.68,5.13,3.75,2.83,1.68,1.2c.31.16.6.56.92.52l1-.5,3-1.51c5.68-2.83,11.88-6,18.32-9.37l6.15,7.15a10.16,10.16,0,0,0,15.4-13.26l-3.27-3.79c6.94-3.86,13.13-7.41,18.17-10.36l3.34-.65c3.39,1.07,6.92,3.55,10.38,6.7a108.11,108.11,0,0,1,13.1,15.54c9.07,12.2,19.31,27.12,30.46,43.87s23.26,35.3,36.88,54.23q4.89,6.77,9.84,13.26a40.3,40.3,0,0,0-2.18,5.45,26.41,26.41,0,0,0-.9,2.69,36.1,36.1,0,0,0-.84,14,43.36,43.36,0,0,0,2.6,11.22,46.66,46.66,0,0,0,11.15,17.15,117,117,0,0,0,9.07,9.57,308.11,308.11,0,0,0,32.83,27.3c6.14,4.43,12.31,8.53,18.39,12.28q4.56,2.82,9,5.37l4.45,2.49,5.18,2.81,1.95,1.06c.08,0,.17.14.23.08l.17-.22.33-.45.67-.89,2.06-2.81,2.81-3.65c1.93-2.34,3.85-4.57,5.81-6.64a120.11,120.11,0,0,1,11.62-10.84,122.26,122.26,0,0,1,19.25-12.84c1.76-.92,3.24-1.68,4.43-2.25a12,12,0,0,0,4.28.32,17.28,17.28,0,0,0,6.31-2,37,37,0,0,0,5.47-3.71,30.07,30.07,0,0,0,5-4.81,12.41,12.41,0,0,0,2.78-7.38c.09-2.92-1.22-5.52-2.22-7.55a14.4,14.4,0,0,1-1.78-6,29.2,29.2,0,0,1,.65-6.78c1.62-9.69,4.87-19.55,7-30.47.2-1,.36-2.11.53-3.19a29.78,29.78,0,0,1,15.15-8.29l.53-.1a6.17,6.17,0,0,1,.75-.12c.51-.05,1-.12,1.46-.19l2.8-.42c.09,0,.28,0,.28-.1Zm-403.77-229.5a2.15,2.15,0,0,1,1.19-1.26,1.46,1.46,0,0,1,.73,0c.36.06.95.22,1.47.35,1.06.29,2.14.62,3.26,1a62.73,62.73,0,0,0,7.36,2.08,35.32,35.32,0,0,0,8.27.09c2.58-.18,5.26-.41,8-.67l8-.75,7.38,2.33,10.11,3.11,1,.3-44.62,11.25-11.51-13.39a11.2,11.2,0,0,0-1.23-1.16c0-.28,0-.56,0-.85A6.28,6.28,0,0,1,7281.84,7189.4Zm74.93,121.43c-6.93,3.66-13.42,7.35-19.25,10.84l-1.08.65c-.25.14-.22.14-.25.17l-.1.08c-.15.19-.24,0-.54-.09l-4-2.41-6.76-4,.26.12a65.8,65.8,0,0,0,11.41,4,65.51,65.51,0,0,0-10.48-6,67.32,67.32,0,0,0-8.92-3.31c6.78-3.22,13.28-6.14,18.19-9l1.81-.19c1.76-.22,3.37-.49,4.59-.69l2-.35a10.13,10.13,0,0,0-1.93-.77,13.33,13.33,0,0,0-2.56-.45c1.83-1.22,3.28-2.32,4.33-3.18,1.37-1.14,2.09-1.81,2.09-1.81l-2.54,1.06c-1.63.67-4,1.58-6.93,2.6-5.84,2.13-14.19,4.23-23.1,8.49l-2,1c-.1.06,0,0-.07.06l-.05,0h0l-.23-.28-.48-.61-1.91-2.38c-1.28-1.53-2.5-3-3.68-4.41-2.37-2.77-4.56-5.19-6.43-7.19l-.87-.94,1.18-.77,2.79-1.9,5.17-3.6c3.24-2.31,6.08-4.39,8.43-6.14l.84-.63a16.41,16.41,0,0,0,3.41-.23,16.91,16.91,0,0,0,4.83-1.76,10.42,10.42,0,0,0-5-.47c2.14-1.65,3.33-2.61,3.33-2.61s-3.18,1.41-8.44,4c-2.63,1.29-5.78,2.87-9.31,4.71l-5.56,2.95-3,1.62-.76.42a.26.26,0,0,1-.14,0l-.16,0-.05-.18,0-.06-.44-.67-2-2.88-4.16-5.92-2.82-3.89-1.4-1.89c-.32-.4-.24-.35-.32-.58a1,1,0,0,1,.11-.53,1,1,0,0,1,.26-.29l.86-.71,3.32-2.82c4.28-3.73,7.93-7.31,10.88-10.42a129.82,129.82,0,0,0,9.09-10.46l-5.14,3.93,0,0a3.48,3.48,0,1,0-2-.91,20.79,20.79,0,0,0-1.17,3.39c-.82.64-1.69,1.3-2.62,2-3.38,2.55-7.43,5.55-11.95,8.8l-3.48,2.49,0,0-6.6-10.45a16.26,16.26,0,0,1,1.12-18.94l19.42-23.89,7.06-1.79a11.43,11.43,0,0,0-.41,5.08,14.78,14.78,0,0,0,5.09,8.77,19.76,19.76,0,0,0,4.4,2.72,18.11,18.11,0,0,1,3.71,2.24,20.32,20.32,0,0,1,5,6.61,26.46,26.46,0,0,1,1.67,6.84c.49,3.18,1,6.47,2.9,9.24,1.75,2.55,4.37,4.19,6.9,5.78s5.09,3.18,6.53,5.6c1.24,2.09,1.56,4.56,1.9,7.18a21.36,21.36,0,0,0,2,7.68c1.7,3.1,4.62,5,7.44,6.9a30.86,30.86,0,0,1,5.16,4,28.9,28.9,0,0,1,4,5.75c.42.74.85,1.48,1.3,2.2,1.17,1.87,4,5.94,7.86,7.61Q7362.67,7307.73,7356.77,7310.83Zm99.76,49.28q9.86,9.29,19.47,18.85,14.66,14.67,28.95,29.71,20.09,21.14,39.66,42.74a45.57,45.57,0,0,1-5.46-2.07q-18.45-18.92-37.32-37.37-13.86-13.56-27.93-26.89C7467.9,7376.43,7462.13,7368.06,7456.53,7360.11Zm106.31,122.06c5,3.67,8.23,5.86,8.23,5.86s-3.48-1.7-8.85-4.93a146.78,146.78,0,0,1-37.07-31.75c-4-4.81-6.23-8-6.23-8s2.65,2.82,7.06,7.23,10.64,10.31,17.83,16.48S7557.8,7478.49,7562.84,7482.17Zm-75.58-78q-4.22-6-8.3-11.83,10.47,10.74,20.86,21.59,12.7,13.4,25.25,26.95C7515.05,7433.61,7502.59,7422.08,7487.26,7404.19Zm144.61,97.33a110.9,110.9,0,0,0-20.56,11.4,112.5,112.5,0,0,0-12.64,10.37c-2.14,2-4.26,4.23-6.37,6.56-1,1.2-2.08,2.4-3.1,3.65l-.68.86-.15.16c-.05,0-.09.12-.14.1l-.18-.12-7.74-4.66q-4.34-2.66-8.77-5.52c-5.91-3.83-11.93-7.93-18-12.3-12.11-8.72-23.2-17.67-32.9-26.22a124.57,124.57,0,0,1-10-9.74,66.67,66.67,0,0,1-8.14-15.47,58.55,58.55,0,0,1-3.83-22.64,57.8,57.8,0,0,0,19.83,40.43,48.75,48.75,0,0,0,5.64,4.29c1.39.89,2.18,1.38,2.18,1.38l-1.59-2c-1.05-1.27-2.48-3.18-4.16-5.53a134.11,134.11,0,0,1-19.19-40c-.29-1-.55-2-.78-2.86.88,2.61,2,5.65,3.38,9.13a107.75,107.75,0,0,0,9.72,18.85c4.51,6.73,10.5,13.25,17.07,19.58a153.68,153.68,0,0,0,38.13,27.18,141.46,141.46,0,0,0,13,5.72c3.12,1.19,4.87,1.77,4.87,1.77l-4.49-2.56c-2.89-1.64-7-4.12-11.94-7.36a240.49,240.49,0,0,1-35.65-28.77c-6.48-6.24-12.46-12.26-17.12-18.31a140.51,140.51,0,0,1-11-17.3c-1.45-2.63-2.7-5-3.79-7.14a389.47,389.47,0,0,0,27.88,32.19c13.8,15.05,30.22,25.09,45.21,29.17a83.24,83.24,0,0,0,20.63,2.63c3.46,0,6.6-.08,9.48-.24,8.08.67,17.3,1.07,27.5.95l-.63-.34-4.28-2.29c-2.1-1.1-4.74-2.42-7.68-3.82-1.76-.84-3.6-1.69-5.55-2.57l-2.8-1.24c-3.6-1.55-6.93-2.83-9.65-3.82-4.22-1.52-7-2.33-7-2.33a48.22,48.22,0,0,1,5.4.71l.72.13a59.77,59.77,0,0,1,6.73,1.7,67.12,67.12,0,0,1,7.5,2.81l.68.33c2.12,1,4.09,2,5.88,3a75,75,0,0,1,6.35,4.1c1.79,1.31,3.12,2.39,3.93,3.07l.24.2.35.31h.46l.57.28c.45.17.91.33,1.39.47C7634.86,7500.33,7633.49,7500.86,7631.87,7501.52Zm27.05-70.81c0,.23-.1.47-.14.71l-31.27-34.17,30.43,38.25c-.34,1.64-.67,3.28-1,4.91l-34.41-36.76,33.42,41.07c-.35,1.47-.66,2.94-1,4.41l-37.72-39.45,36.68,44.11c-.28,1.38-.49,2.75-.73,4.12L7611.27,7415l41,48.25a31.58,31.58,0,0,0-.3,3.93l-47.64-48,50.21,57.81a14.73,14.73,0,0,1,1.86,4.78c-19.44-20-39.64-39.1-59.33-58.73,17.48,19.81,35.46,39.21,52.66,59.18.43-.18.69-.31.69-.31a6.15,6.15,0,0,1,0,.8c0,.08,0,.19,0,.27,1.38,1.6,2.78,3.19,4.15,4.8-.36.41-.72.81-1.09,1.21l-3.78-3.75a7.93,7.93,0,0,1-3.79,3.54l3.59,4c-.41.35-.83.68-1.25,1-1.43-1.48-2.87-2.94-4.31-4.4a8,8,0,0,1-6.59-1.9,5.71,5.71,0,0,1-1.35-1.75,4.61,4.61,0,0,1-.32-.73,16.69,16.69,0,0,0,2.67-.13c.29,0,.62-.12.93-.18-20.21-20-41.61-38.56-61.5-58.76,21.27,24.16,44.71,46.44,65.65,70.64a13.89,13.89,0,0,1-2.11.66l-75.55-72,66.23,69.93c-1.87-1.06-3.64-2.3-5.35-3.46l-1.65-1.17c-23.57-23.33-48.45-45.15-72.85-67.46,19.31,19.37,39,38.44,57.87,58.18-1.72-.89-3.38-1.71-4.88-2.39-2.23-1-4.17-1.81-5.84-2.46q-9.06-8.49-18.22-16.88c-1.29-1.36-2.68-2.81-4.16-4.33-2.84-3.05-6.21-6.64-10-10.69-12.73-13.45-30.44-31.92-50.88-51.47s-39.87-36.28-54.42-47.8c-7.25-5.79-13.24-10.31-17.44-13.35l-6.53-4.71,6,5.39c3.86,3.44,9.4,8.49,16.17,14.79,13.59,12.54,32,30.23,52.38,49.73q10,9.53,19.23,18.26l29.49,34.75a3.1,3.1,0,0,1-.45.39q-23.73-24.94-48.3-49-14.86-14.57-30.13-28.68c-10.2-9.38-20.56-18.62-31.38-27.27,10.52,9,20.54,18.58,30.41,28.29s19.53,19.63,29.08,29.65q23,24.16,45.22,49.07a18.83,18.83,0,0,1-2.76.22q-22.43-23.39-45.57-46-14.82-14.55-30-28.75-10.68-10-21.68-19.58c-9.63-13.67-18.74-26-27.08-36.53l-15.57-31.66a4.17,4.17,0,0,0-4.19-2.3l.18-.11-.43.15a4.42,4.42,0,0,0-1.19.37l-.45.23c-5,1.83-18.63,7.05-35.4,15.08-.2,0-.4,0-.6-.05-3.95-.73-7.17-5.33-8.38-7.27-.43-.71-.85-1.43-1.27-2.14a30.63,30.63,0,0,0-4.28-6.16,31.78,31.78,0,0,0-5.52-4.26c-2.73-1.81-5.31-3.52-6.75-6.16a19.49,19.49,0,0,1-1.76-6.93c-.35-2.72-.72-5.53-2.18-8-1.7-2.86-4.51-4.62-7.22-6.32-2.46-1.54-4.78-3-6.28-5.18-1.63-2.37-2.08-5.28-2.55-8.36a28.81,28.81,0,0,0-1.83-7.38A22.38,22.38,0,0,0,7317,7228a21,21,0,0,0-4.13-2.5,18.35,18.35,0,0,1-4-2.43,12.67,12.67,0,0,1-4.38-7.49,9,9,0,0,1,.91-5.41l42.54-10.72,84.88,48.75c20.67,12.77,39.63,24.8,57.7,36.54.15.18.28.35.44.53a44.87,44.87,0,0,0,7.31,6.73,41.17,41.17,0,0,0-2.16-3.61c12.32,8,24.26,16,36.05,23.91a62.17,62.17,0,0,1,1.94,6,59,59,0,0,1,1.81,10.82c.2,2.84.16,4.65.16,4.65a25.12,25.12,0,0,0,1-4.62,30.56,30.56,0,0,0-.77-11.42,29,29,0,0,0-1.17-3.48q8.65,5.85,17.28,11.74l.6.76a111.44,111.44,0,0,1,14.87,26c1.43,3.59,2.2,5.89,2.2,5.89a48.3,48.3,0,0,0-1.14-6.23,54,54,0,0,0-12.45-23.61q6.83,4.68,13.68,9.42.9.94,2,2.22a90.09,90.09,0,0,1,15.82,25.21c1.47,3.57,2.21,5.88,2.21,5.88a41.65,41.65,0,0,0-1.15-6.23,50,50,0,0,0-6-14.1,50.52,50.52,0,0,0-7.55-9.27q6.65,4.6,13.37,9.29l1.11,1.52a104.59,104.59,0,0,1,14.07,27.54c1.25,3.8,1.88,6.23,1.88,6.23a47.57,47.57,0,0,0-.8-6.5,54.51,54.51,0,0,0-12.92-26.46q8.27,5.78,16.76,11.75a57.68,57.68,0,0,1,7.32,20.78c.24,1.66.39,3,.44,4l.11,1.47.24-1.46a29.66,29.66,0,0,0,.33-4.05,35.33,35.33,0,0,0-2.34-13.24,34.92,34.92,0,0,0-2.42-4.9l13.43,9.45,0,0-1.34-.71,1.14,1c.37.3.79.69,1.27,1.15.55,1.72,1.14,3.84,1.7,6.17.67,2.83,1.17,5.45,1.45,7.4l.42,3.19a17.34,17.34,0,0,0,.69-3.2,21.81,21.81,0,0,0,.18-2.6l7.6,9.75a40.89,40.89,0,0,1,.93,4.41,36.74,36.74,0,0,1,.4,4.06c.05,1,.07,1.51.07,1.51s.1-.55.28-1.49a24.66,24.66,0,0,0,.37-4.15c0-.55,0-1.18-.07-1.79l18.5,23.72C7659.44,7427.41,7659.21,7429.05,7658.92,7430.71Zm-22.72-39.39a46.17,46.17,0,0,1,2.37,6.07l-7-7.86a21.76,21.76,0,0,0-.56-5.12,19.64,19.64,0,0,0-.65-2.17A45.24,45.24,0,0,1,7636.2,7391.32Zm-5.68-10.87,3.08,2.17c1.6,1.45,3.22,3,4.82,4.57,7.06,7.07,12.14,14.68,14.73,20.8a48,48,0,0,1,2.59,7.52c.15.62.26,1.11.36,1.54l-15.1-16.94a30.92,30.92,0,0,0-2.79-9.77A30.46,30.46,0,0,0,7630.52,7380.45Zm29.59,41.1-3.62-4.06c0-.51.09-1.18.11-2.08a33.78,33.78,0,0,0-.47-6.49l4.56,6C7660.55,7417.1,7660.33,7419.31,7660.11,7421.55Zm-5.07-17.49a45.83,45.83,0,0,0-3.81-9l4.86,3.42.18-.25c.29.23.58.47.83.71a12.94,12.94,0,0,1,1.2,1.14,14.18,14.18,0,0,1,2.26,6.6,38.29,38.29,0,0,1,.25,4.05Zm24.05,10.56c0,.08-.05.08-.08.07l0,0h0l-.21,0a24.5,24.5,0,0,0-11,5.32,27.68,27.68,0,0,0-2.26,2.18c.27-2.36.54-4.78.7-7.28a49,49,0,0,0-.14-9,24.35,24.35,0,0,0-1-4.69,14.51,14.51,0,0,0-2.38-4.68,15.35,15.35,0,0,0-1.89-1.86c-.59-.55-1.16-1-1.74-1.46-1.16-.93-2.31-1.8-3.46-2.67-2.31-1.71-4.62-3.38-6.93-5-4.6-3.24-9.18-6.35-13.69-9.38l-11.78-7.84c-10.32-7.26-20.33-14.29-30.14-21.13,1.75.72,3.75,1.56,6,2.54a250.16,250.16,0,0,1,57.8,35.56c3.37,2.8,6.09,5.13,7.91,6.81l2.88,2.56-2.24-3.15a101.62,101.62,0,0,0-6.61-8.23,117.86,117.86,0,0,0-58.82-36.19c-4.23-1.09-7.7-1.79-10.16-2.16l-3.46-2.41c.86,0,1.87.11,3.06.24a107,107,0,0,1,63.68,28.67,108.93,108.93,0,0,1,18.16,22.79l-.05,0s.4.72,1.1,2,1.66,3.15,2.67,5.5a68,68,0,0,1,3,8.31l.65,2.43.3,1.25A4.48,4.48,0,0,1,7679.09,7414.62Z" transform="translate(-6677.61 -6702.06)"/><path d="M7616.24,7502.87a105.4,105.4,0,0,1-42.26-.58c-2.67-.6-4.83-1.15-6.3-1.6l-2.3-.66,2.19,1a62.12,62.12,0,0,0,6.12,2.35,71.21,71.21,0,0,0,42.82.59,63.67,63.67,0,0,0,6.18-2.18l2.21-.93-2.32.6C7621.1,7501.86,7618.93,7502.35,7616.24,7502.87Z" transform="translate(-6677.61 -6702.06)"/><path d="M7672.26,7405.45a33.92,33.92,0,0,1,.82,6.38c0,1.7,0,2.81,0,2.81a11.33,11.33,0,0,0,1.14-2.65,13.86,13.86,0,0,0-2.94-13.28,11.21,11.21,0,0,0-2.16-1.91s.54,1,1.22,2.52A33.91,33.91,0,0,1,7672.26,7405.45Z" transform="translate(-6677.61 -6702.06)"/><path d="M7564.72,7511.12c-6.66-4-12.52-8-16.69-11l-6.72-4.94s2.16,2.36,6,5.81a108.63,108.63,0,0,0,34.41,20.83c4.85,1.82,7.94,2.64,7.94,2.64l-7.49-3.66C7577.61,7518.51,7571.39,7515.15,7564.72,7511.12Z" transform="translate(-6677.61 -6702.06)"/><path d="M7608.91,7377.62c.48,1.69.84,3,.84,3a16.48,16.48,0,0,0,.27-3.14,19.41,19.41,0,0,0-5.71-13.82,16,16,0,0,0-2.4-2l1.51,2.7c.89,1.66,2,3.95,3.06,6.52A71.78,71.78,0,0,1,7608.91,7377.62Z" transform="translate(-6677.61 -6702.06)"/><path d="M7551.46,7332a31.48,31.48,0,0,0-6.65-8.55,26.44,26.44,0,0,0-3.53-2.73s1.1,1.31,2.7,3.48a73.44,73.44,0,0,1,5.5,8.84,72.24,72.24,0,0,1,4.16,9.54c.89,2.55,1.34,4.2,1.34,4.2a25.46,25.46,0,0,0-.25-4.46A31.49,31.49,0,0,0,7551.46,7332Z" transform="translate(-6677.61 -6702.06)"/><path d="M7519.22,7311.1a35.64,35.64,0,0,0-5.85-9,29.69,29.69,0,0,0-3.16-3.09s.94,1.55,2.25,3.75a105.84,105.84,0,0,1,8.51,18.89c.78,2.44,1.32,4.17,1.32,4.17a29.48,29.48,0,0,0-.22-4.42A35.52,35.52,0,0,0,7519.22,7311.1Z" transform="translate(-6677.61 -6702.06)"/><path d="M7494.5,7297.94a12.62,12.62,0,1,0,2.57,4.65A13.24,13.24,0,0,0,7494.5,7297.94Z" transform="translate(-6677.61 -6702.06)"/><path d="M7501.31,7294a25.8,25.8,0,0,0,1.43,7.35,26.09,26.09,0,0,0,3.54,6.59,25.8,25.8,0,0,0-1.43-7.35A26.09,26.09,0,0,0,7501.31,7294Z" transform="translate(-6677.61 -6702.06)"/><path d="M7578.74,7356.08a28.59,28.59,0,0,0-7.16-15.75,24.58,24.58,0,0,0-2.59-2.53l1.67,3.17c1,1.94,2.32,4.62,3.68,7.6s2.51,5.73,3.31,7.78l1.29,3.34A25.07,25.07,0,0,0,7578.74,7356.08Z" transform="translate(-6677.61 -6702.06)"/><path d="M7485.12,7287.07a38.82,38.82,0,0,0-7.7-9.09,33.14,33.14,0,0,0-3.93-2.95s1.26,1.41,3.12,3.73a90.17,90.17,0,0,1,6.6,9.47,91.51,91.51,0,0,1,5.33,10.22c1.2,2.74,1.86,4.5,1.86,4.5a32.06,32.06,0,0,0-.8-4.85A38.36,38.36,0,0,0,7485.12,7287.07Z" transform="translate(-6677.61 -6702.06)"/><path d="M7456.52,7274.1a29.35,29.35,0,1,0,4.95,6.41A30,30,0,0,0,7456.52,7274.1Z" transform="translate(-6677.61 -6702.06)"/><path d="M7465.39,7272.16a76,76,0,0,0,14.11,21.78,76.33,76.33,0,0,0-14.11-21.78Z" transform="translate(-6677.61 -6702.06)"/><path d="M7643.12,7483.84c1.5-.33,3-.55,4.28-.89-19.61-19.61-38.89-39.72-59.64-58.19,18.9,19,36.27,39.31,54,59.38C7642.23,7484,7642.67,7483.93,7643.12,7483.84Z" transform="translate(-6677.61 -6702.06)"/><path d="M6998.05,7226.93a93,93,0,0,1-8.77-9.26c-.41-.69-.82-1.38-1.2-2.16a119.86,119.86,0,0,1-6.53-14,124.67,124.67,0,0,1-8.17-36.63,118.82,118.82,0,0,1,0-15.46c.05-2.22.36-4.2.53-6s.39-3.27.6-4.5c.39-2.47.61-3.84.61-3.84l-1.29,3.68a41.91,41.91,0,0,0-1.31,4.4c-.43,1.74-1,3.71-1.36,5.95a86.3,86.3,0,0,0-1.53,15.86,94.55,94.55,0,0,0,2.11,19.48,91.27,91.27,0,0,0,3.48,11.52,138.69,138.69,0,0,1-7.51-18.82,173.13,173.13,0,0,1-4.79-20c-.28-1.76-.57-3.55-.86-5.34s-.46-3.63-.69-5.47-.37-3.7-.55-5.56l-.23-2.49.08-2.72c.36-15.06,2.7-29.92,3.39-43.74a143.12,143.12,0,0,0-.22-22.87c.37,1.08.74,2.17,1.09,3.25a104.2,104.2,0,0,1,4.82,24.94c.21,3.41.24,6.26.21,8.26s-.07,3.14-.07,3.14.68-.9,1.74-2.66a41.61,41.61,0,0,0,3.65-7.95,46.78,46.78,0,0,0,.3-29.14c-3.68-11.05-9.86-18.66-13.24-24.45-.38-.63-.73-1.23-1.07-1.81,4.22,2.09,8.52,3.62,11.9,5.6a51.35,51.35,0,0,1,18.45,19,50.58,50.58,0,0,1,3.67,8.08c.71,2.05,1.07,3.25,1.07,3.25a26.54,26.54,0,0,0,.67-3.42,33.31,33.31,0,0,0-.1-9.67,38,38,0,0,0-14.63-24.53,40.24,40.24,0,0,1,1-20.63c3.32-10.88,11.57-22.06,22.88-32.41,11.21-10.53,25.46-20.35,39.4-32.92,13.76-12.61,25.51-26.64,32.91-41.55s10.06-30.17,9-42.6a68.08,68.08,0,0,0-1.06-7.41c1.13,2.31,2.26,4.7,3.38,7.19a59.57,59.57,0,0,1,1.25,16.19,80.51,80.51,0,0,1-8.6,30.87c-5.4,10.87-13.67,21.57-23.11,32.12s-19.11,20.21-27.18,29.73a151,151,0,0,0-19,27.19,85.55,85.55,0,0,0-7.88,20.86c-.55,2.58-.92,4.58-1.06,6s-.28,2.09-.28,2.09l.47-2.06c.26-1.35.8-3.31,1.54-5.81a91.75,91.75,0,0,1,9.16-20A167.58,167.58,0,0,1,7035,6981.9c8.26-9.1,18.07-18.53,27.69-29.24s17.92-21.93,23.17-33.47a78.88,78.88,0,0,0,7.44-32.44,62,62,0,0,0-.84-9.89c1,2.5,1.95,5,2.81,7.3,1.47,4.28,2.74,8.25,3.61,11.69.47,1.52.75,2.9,1,4.18a119.73,119.73,0,0,0-12.11,24.71c-1.15,3.27-1.91,5.85-2.38,7.6s-.71,2.68-.71,2.68l1.16-2.51c.76-1.65,1.92-4.05,3.52-7.07a141.08,141.08,0,0,1,12-18.64l.13.57s.19-.5.49-1.38c1.09-1.41,2.22-2.83,3.44-4.29a136.53,136.53,0,0,1,13.62-14.05c5.38-4.79,11.15-9.94,17.12-15.5,11.92-11.13,24.78-24,36.3-39.33a173,173,0,0,0,21.94-37.85,112,112,0,0,1-8.92,25.2,82.35,82.35,0,0,1-6.43,10.66c-.83,1.25-1.59,2.13-2.06,2.79l-.73,1,1.05-.62c.67-.43,1.74-1,3-1.9a55.89,55.89,0,0,0,9.8-8.73c7.57-8.19,15.34-22.47,17.87-39.47,2.44-16.39.43-31.07-1.55-41.6a175.4,175.4,0,0,0,15.43,25.63c8,11.44,18.08,23.08,28.4,34.95s19.77,23.27,27,34.51a124.39,124.39,0,0,1,15,31.95,81.73,81.73,0,0,1,3.57,23.79,61.65,61.65,0,0,1-.37,6.66c-.17,1.52-.25,2.33-.25,2.33l.72-2.24a52.92,52.92,0,0,0,1.64-6.58,74.65,74.65,0,0,0,.15-25.16,110.47,110.47,0,0,0-12.29-35.54c-6.74-12.53-16.15-25-26.64-37s-20.75-22.92-29.38-33.39-15.84-20.22-20.89-29.07a113.42,113.42,0,0,1-6-12.14c-.62-3.33-1.32-6.25-2-8.72a78.89,78.89,0,0,0-2.46-7.58l-1-2.59s.18.94.53,2.72c.1.48.21,1,.32,1.66-.17-.78-.32-1.49-.41-2.07-.29-1.51-.44-2.31-.44-2.31s0,.81,0,2.35a59.92,59.92,0,0,0,.24,6.78,74.82,74.82,0,0,0,2.3,12.64,142.32,142.32,0,0,1-.64,17.4,149.3,149.3,0,0,1-9.67,40.7c-5.77,14.59-14.65,29.57-25.66,44.18s-22.94,27.59-34,39.34l-15.81,16.74a126.31,126.31,0,0,0-9.05,10.9,57.62,57.62,0,0,0-.23-11,55.81,55.81,0,0,0-13.23-29.94,55.33,55.33,0,0,0-9.95-9,42.19,42.19,0,0,0-4.32-2.76,28.47,28.47,0,0,0-3.43-1.77l-1.26-.57-.07,0a17.73,17.73,0,0,0-2.39-1.29s.35.24.92.68l-.2-.08,1.89,2.65c.63.82,1.37,1.82,2.16,3s1.77,2.49,2.69,4c.55.83,1.11,1.73,1.68,2.65a58.86,58.86,0,0,1,2.94,21.23c-.37,11.49-4.06,25-11.71,38s-19,25.72-32.14,37.76-27.33,22.54-38.52,34.49a103.08,103.08,0,0,0-14.21,18.55,61,61,0,0,0-7.44,19.21,42.64,42.64,0,0,0,.73,19.49c-6.12-3.41-11.75-4.29-15.94-5.73a45.47,45.47,0,0,1-11-5.49,79.94,79.94,0,0,1-7.17-5.42l-2.58-2.24a30.91,30.91,0,0,0,1.17,3.27,41.22,41.22,0,0,0,4.67,8.38c.69.94,1.46,1.91,2.31,2.89a74.44,74.44,0,0,1,5.83,21.81c1.17,9.91.6,21.8-1.3,35.07-1,6.71-2,13.75-3,21a197.11,197.11,0,0,0-2.13,23.35l-.08,3.15c0,1.07.11,1.24.15,1.83l.15,1.5c.22,2,.37,4,.69,5.92s.6,3.89.89,5.81.76,3.8,1.13,5.68a143.47,143.47,0,0,0,6.4,21.14c5.3,13.09,12.19,24,19.32,31.83A91.52,91.52,0,0,0,6995,7227l.73.77s-.13-.21-.33-.5c.56.37,1.11.73,1.63,1.05,2.4,1.65,4.49,2.59,5.79,3.37l2,1.11-1.77-1.51C7001.91,7230.25,7000.09,7229,6998.05,7226.93Zm-42.68-188c.41.3.83.61,1.27.9,0,.51,0,1,0,1.58C6956.21,7040.57,6955.79,7039.75,6955.37,7039Z" transform="translate(-6677.61 -6702.06)"/><path d="M7029.8,7135.71a76.46,76.46,0,0,1-7.72-16.1,77.53,77.53,0,0,1-4.13-25.29,75.15,75.15,0,0,1,6.81-29.89c4.34-10.25,10.1-19.71,15.06-28.63a198.21,198.21,0,0,0,12.25-24.66,88.44,88.44,0,0,0,5-18c.5-4.39.62-6.77.62-6.77s-.82,2.25-2.31,6.31a118.06,118.06,0,0,1-8.29,16c-4,6.47-9.29,13.78-15.22,22.11s-12.47,17.8-17.37,29.27a87.3,87.3,0,0,0-3.21,8.69,85.27,85.27,0,0,0-2.09,8.85,66.71,66.71,0,0,0-.64,17.17,69.51,69.51,0,0,0,8.45,27.16,63.87,63.87,0,0,0,11.47,14.92,45.69,45.69,0,0,0,3.79,3.33l1.37,1.1-1-1.43C7031.92,7138.89,7030.92,7137.55,7029.8,7135.71Z" transform="translate(-6677.61 -6702.06)"/><path d="M7000.39,7116.65l-11.06-16.79,3.58,20.24a26.73,26.73,0,0,0,1.63,5.69,19.36,19.36,0,0,0,1.24,2.44l-.47,0-.63-.06c-.14-.07-.1-.27-.17-.4l-.22-.9c-.15-.63-.3-1.18-.47-1.68-.32-1.1-.64-2-1-2.93-.53-1.51-1.06-3-1.6-4.57l-.32-.88-.16-.45c-.05-.14-.14-.4,0,0l.72,2.52L6993,7124c.11.39.29,1,.34,1.21l.12.65.24,1.29a44.62,44.62,0,0,1,.78,5.25,86.24,86.24,0,0,1,.4,11c-.3,11.72-2,23.51-2.23,34.53a111.42,111.42,0,0,0,.65,15.74q.26,1.85.51,3.63l.14,1.11.36,1.12.59,1.66a61.34,61.34,0,0,0,2.67,6.16c3.84,7.71,9.08,12.71,13.15,15a27,27,0,0,0,4.85,2.26l1.76.56-1.54-1a28.55,28.55,0,0,1-4-3.22c-3.23-3-6.82-8.36-9-15.76-.54-1.86-1.05-3.81-1.47-5.88-.09-.52-.19-1.05-.29-1.58a3.17,3.17,0,0,1,0-1.12c0-1.11,0-2.24,0-3.39a140.86,140.86,0,0,1,1.12-14.68c1.18-10.38,3.63-21.9,4-34.95,0-2.64,0-5.29-.2-7.92,11.14,12.51,18.5,19.93,18.5,19.93S7015.37,7139.42,7000.39,7116.65Z" transform="translate(-6677.61 -6702.06)"/><path d="M7301.49,6896.19a41.75,41.75,0,0,0,3.87-4.94,52,52,0,0,0,3.93-6.52c.62-1.12,1.18-2.3,1.73-3.51a67.34,67.34,0,0,0,5.13,21.93,57.17,57.17,0,0,0,3.87,7.64c1,1.73,1.69,2.65,1.69,2.65s0-1.12,0-3.13-.06-4.85-.07-8.3c-.05-6.93.17-16.15.43-26.21.17-5.78.34-11.27.53-16.23a70.15,70.15,0,0,0,13.82,26.17c9.78,12.31,23.39,22.52,36.17,33.4a137.53,137.53,0,0,1,17.07,16.95,105.73,105.73,0,0,1,12.24,18.58,114.09,114.09,0,0,1,11.82,36.26c.15,1,.28,2,.4,3-.16,2.3-.33,4.53-.55,6.67a99.56,99.56,0,0,1-4.32,21.89,48.69,48.69,0,0,1-6.87,13.5,41.37,41.37,0,0,1-2.72,3.27l-1,1.11,1.32-.74a33.78,33.78,0,0,0,3.66-2.4,42.94,42.94,0,0,0,10-11.17c-.08.55-.12.87-.12.87s.17-.52.5-1.49l.36-.58a77.23,77.23,0,0,0,8.57-22.74c2-9,2.78-18.62,4.51-28a73.48,73.48,0,0,1,3.49-13.07,38,38,0,0,1,6-10.5,60.61,60.61,0,0,1,30.21-20.53c1.77-.5,3.18-.88,4.14-1.07l1.47-.34-1.5-.14a42.18,42.18,0,0,0-4.36-.18,51.15,51.15,0,0,0-16,2.83,55.34,55.34,0,0,0-21,13.15c-.85.84-1.65,1.76-2.48,2.66l-2.39,3c-.7,1.08-1.43,2.18-2.11,3.32s-1.27,2.32-1.82,3.53a61.81,61.81,0,0,0-4.27,13.41,105.7,105.7,0,0,0-6.36-19.57,102,102,0,0,0-12.36-21.15,123.67,123.67,0,0,0-18.19-18.8c-13.44-11.39-26.68-20.52-36.3-31.07-9.76-10.34-15.85-21.9-17-32.48-1.35-10.62,1.33-19.5,4.44-24.76a31.47,31.47,0,0,1,4.22-5.77c1.16-1.19,1.78-1.81,1.78-1.81l-2.11,1.45c-.52.39-1.15.91-1.83,1.5a.44.44,0,0,0,.08-.11l2.17-3.28s-1.2.67-3.39,2a23.74,23.74,0,0,0-3.83,2.74,40.2,40.2,0,0,0-4.63,4.29,46.73,46.73,0,0,0-4.8,6c-.75,1.16-1.62,2.34-2.33,3.63s-1.39,2.64-2.12,4a95.57,95.57,0,0,0-6.51,18.62c-1.61,6.65-2.73,12.87-3.82,18.48-.6,2.76-1.06,5.45-1.71,7.86s-1.19,4.71-1.8,6.78-1.31,3.89-1.87,5.55a31.48,31.48,0,0,1-1.71,4.16l-1.59,3.6s1.08-.87,3-2.58A25.36,25.36,0,0,0,7301.49,6896.19Z" transform="translate(-6677.61 -6702.06)"/><path d="M7373.15,6990.29c.76,3.79,1.65,7.41,2.1,10.85.26,1.72.61,3.38.79,5s.35,3.17.52,4.65c.43,3,.45,5.69.64,8.09a61.78,61.78,0,0,1,.22,6.18c.07,3.44.11,5.35.11,5.35s.58-1.83,1.63-5.11a48.26,48.26,0,0,0,1.56-6.13,73,73,0,0,0,1.43-8.31c.17-1.56.34-3.19.53-4.89s.14-3.49.2-5.34a98.67,98.67,0,0,0-.42-11.83,101.45,101.45,0,0,0-19.13-50.36,98.83,98.83,0,0,0-7.54-9.13c-1.28-1.34-2.44-2.68-3.7-3.85s-2.48-2.26-3.64-3.32a75.11,75.11,0,0,0-6.58-5.26,46.64,46.64,0,0,0-5.24-3.54l-4.61-2.74,3.47,4.06c1.14,1.27,2.5,2.84,3.94,4.78s3.23,4,4.88,6.47l2.71,3.82c.93,1.32,1.77,2.8,2.72,4.26,1.95,2.87,3.68,6.16,5.63,9.51a209.61,209.61,0,0,1,10.47,22.8A211.77,211.77,0,0,1,7373.15,6990.29Z" transform="translate(-6677.61 -6702.06)"/><path d="M7469,7016.33a281.52,281.52,0,0,0-11.46-26.21l-1.47-3c-.4-.92-.79-1.84-1.19-2.74-.75-1.83-1.41-3.73-2-5.59a67.31,67.31,0,0,1-2.33-11,49.86,49.86,0,0,1,1-19.28,28.45,28.45,0,0,1,7.07-12.66,25.4,25.4,0,0,1,4.33-3.26,17.66,17.66,0,0,1,3.61-1.82l3.17-1.16-3.33.71a17.19,17.19,0,0,0-3.92,1.36,17.71,17.71,0,0,0-4.14,2.3,13.56,13.56,0,0,0-1.6.78l-2.58,1.6c-3.8,2.53-8.56,7.42-12.49,14.69a68.27,68.27,0,0,0-7.41,27.82c-.57,11,1.9,23,5.79,34.78s8.51,22.6,11.84,32.62,5.43,19.32,6,27.26a63.66,63.66,0,0,1-1.09,18.81,50.94,50.94,0,0,1-1.39,5l-.55,1.73.73-1.66a46.3,46.3,0,0,0,1.88-4.88,60.1,60.1,0,0,0,2.65-19.09c0-8.2-1.65-17.92-4.66-28.28s-7.4-21.3-11.19-32.89-6.4-22.9-6.27-33.27a70.41,70.41,0,0,1,5.64-26.95c3.28-7.21,7.45-12.31,10.92-15.12l1.47-1.12a30.64,30.64,0,0,0-7.86,11.57,52.18,52.18,0,0,0-3.28,20.83,71.67,71.67,0,0,0,1.47,12.25,65.1,65.1,0,0,0,1.71,6.42c.37,1.09.75,2.19,1.14,3.29s.81,2,1.23,3c3.33,8.16,6.57,16.87,9.55,26.24a332,332,0,0,1,13.66,62c2.65,22.32,2.48,43.84-.32,63.06a196.84,196.84,0,0,1-5.82,27,185.41,185.41,0,0,1-8.45,22.59,168.07,168.07,0,0,1-17.95,30.28c-2.46,3.41-4.58,5.9-6,7.61l-2.15,2.62,2.5-2.29c1.64-1.51,4.09-3.7,7-6.81a149.3,149.3,0,0,0,21.59-28.85,166,166,0,0,0,10.72-22.71,178.11,178.11,0,0,0,7.88-27.81c4-20,4.9-42.67,2.13-66A270.44,270.44,0,0,0,7469,7016.33Z" transform="translate(-6677.61 -6702.06)"/><path d="M7437.42,7134.73c-1.52-13.77-5.88-25.61-9-36.17-3.27-10.54-5.18-20-5.4-28.2a50.46,50.46,0,0,1,2.8-19.14c.38-1.11.82-2.06,1.19-2.88a20.06,20.06,0,0,1,1-2.07l.92-1.69-1.31,1.42a17.88,17.88,0,0,0-1.51,1.8,26.7,26.7,0,0,0-1.87,2.64,47.33,47.33,0,0,0-6.82,19.61c-1.25,8.77-.54,19.61,1.83,30.79s5.71,23,7,35.05a79.71,79.71,0,0,1-3.82,33.54,87.26,87.26,0,0,1-13.32,25,81,81,0,0,1-13.73,14.08c-1.78,1.58-3.37,2.5-4.36,3.29l-1.56,1.13,1.79-.71a49.37,49.37,0,0,0,5.07-2.24,69.08,69.08,0,0,0,16.92-11.78,78.85,78.85,0,0,0,18-25.36A75.31,75.31,0,0,0,7437.42,7134.73Z" transform="translate(-6677.61 -6702.06)"/><path d="M7286.75,6913.57a42.61,42.61,0,0,0,11.32,4.87,31.52,31.52,0,0,0,4.59.94,21.06,21.06,0,0,0,3.5.32c1.93.06,3,0,3,0l-2.42-1.69a30.83,30.83,0,0,1-2.73-1.95c-1-.8-2.22-1.58-3.42-2.65a101.4,101.4,0,0,1-8-7.3c-2.77-2.89-5.63-6.1-8.47-9.6s-5.29-7.05-7.49-10.39c-1.68-2.67-3.19-5.22-4.43-7.59a81.59,81.59,0,0,0-8.45-23,80,80,0,0,0-13.72-18.22,73.92,73.92,0,0,0-11.75-9.58c-1.47-1-2.68-1.67-3.48-2.14l-1.23-.71.93,1.08c.6.71,1.52,1.71,2.62,3.07a113.93,113.93,0,0,1,18.11,30.55,117.75,117.75,0,0,1,6.64,24.5c1.61,9.1,3.11,18.42,6.25,26.67a46.28,46.28,0,0,0,13.16,19.43,29,29,0,0,0,14,6.85,20.85,20.85,0,0,0,4.14.29l1.42-.06-1.35-.42a23.58,23.58,0,0,1-3.68-1.47,29.65,29.65,0,0,1-10.49-9.06,48.33,48.33,0,0,1-8.18-18.34c-.26-1.05-.46-2.18-.67-3.28A47.06,47.06,0,0,0,7286.75,6913.57Z" transform="translate(-6677.61 -6702.06)"/><path d="M6984.57,7176.18l.72-2.23a61,61,0,0,0,1.57-6.2,71.2,71.2,0,0,0-3.86-41.6,60.35,60.35,0,0,0-2.68-5.81c-.71-1.31-1.12-2.05-1.12-2.05s.17.83.46,2.29.72,3.59,1.2,6.19c1,5.22,2,12.38,2.73,20.3s1,15.16,1.05,20.46c0,2.65,0,4.81,0,6.31S6984.57,7176.18,6984.57,7176.18Z" transform="translate(-6677.61 -6702.06)"/><path d="M7150.47,6890.74a128.62,128.62,0,0,1-17.35,17.33c-7.06,6-15.27,12.09-23.83,18.71a173.08,173.08,0,0,0-22.7,20.71c-6.28,7.12-11.15,14.3-14.08,20.89a54.57,54.57,0,0,0-4.77,16.23,38.7,38.7,0,0,0-.36,4.56c-.05,1.05-.08,1.59-.08,1.59s.09-.54.27-1.57a44.9,44.9,0,0,1,.86-4.45,58.23,58.23,0,0,1,6.07-15.35c3.33-6.12,8.46-12.7,14.85-19.32a223.72,223.72,0,0,1,22.69-19.75c8.52-6.6,16.66-13,23.59-19.43a111,111,0,0,0,16.63-18.82,67,67,0,0,0,7.82-15c.76-1.84,1.06-3.38,1.4-4.36s.45-1.53.45-1.53l-.63,1.47c-.45.94-.92,2.41-1.86,4.14A73.73,73.73,0,0,1,7150.47,6890.74Z" transform="translate(-6677.61 -6702.06)"/><path d="M7257.17,6830.82a204.21,204.21,0,0,1,14.46,30c1.52,4,2.69,7.3,3.4,9.61l1.17,3.57s-.18-1.33-.49-3.73a101.72,101.72,0,0,0-1.95-10.11,115.11,115.11,0,0,0-34.14-58,99.24,99.24,0,0,0-7.9-6.61l-3-2.25,2.55,2.76c1.67,1.74,4,4.36,6.75,7.64A204.17,204.17,0,0,1,7257.17,6830.82Z" transform="translate(-6677.61 -6702.06)"/><path d="M7232.7,6878.2a77.63,77.63,0,0,0,1.13,8.57c.45,3.09,1.32,6.3,2.18,9.71a101.09,101.09,0,0,0,21.67,39.83c2.39,2.57,4.62,5,7,7.1a77.36,77.36,0,0,0,6.59,5.6c2,1.69,4.06,2.95,5.78,4.14a45.4,45.4,0,0,0,4.55,2.82l4,2.22-3.58-2.8c-1.16-.87-2.56-2-4.09-3.37s-3.37-2.83-5.17-4.71-3.89-3.76-5.88-6.05-4.08-4.75-6.23-7.36a133.93,133.93,0,0,1-21-38.55c-1-3.23-2.11-6.29-2.79-9.24-.85-2.91-1.4-5.68-1.9-8.22s-.82-4.86-1.14-6.9a51.46,51.46,0,0,1-.61-5.26c-.26-2.91-.41-4.53-.41-4.53s-.1,1.63-.29,4.54a44.87,44.87,0,0,0-.1,5.35C7232.43,6873.18,7232.38,6875.58,7232.7,6878.2Z" transform="translate(-6677.61 -6702.06)"/><path d="M7437.94,7189a143.56,143.56,0,0,0,7.67-25.17,141.93,141.93,0,0,0,2.49-26.2c-.12-4.05-.17-7.89-.61-11.46a99,99,0,0,0-1.33-9.89c-.42-3-1.16-5.68-1.69-8a58.68,58.68,0,0,0-1.64-6l-1.59-5s.33,1.85.91,5.18c.32,1.66.68,3.68.93,6.07s.73,5.05.87,8.06.49,6.25.49,9.78c.17,3.51,0,7.26-.12,11.2a189.17,189.17,0,0,1-3.1,25.41,194.18,194.18,0,0,1-6.8,24.68c-1.4,3.69-2.64,7.24-4.12,10.43-1.32,3.27-2.77,6.21-4.11,8.89s-2.65,5.07-3.79,7.17-2.18,3.89-3.09,5.31c-1.76,2.88-2.73,4.49-2.73,4.49l3.31-4.09c1.08-1.31,2.36-2.95,3.71-4.95s3-4.2,4.55-6.84,3.32-5.45,4.92-8.67S7436.31,7192.74,7437.94,7189Z" transform="translate(-6677.61 -6702.06)"/><path d="M7360.54,7022.92c-.14,2.61-.22,4.07-.22,4.07s.33-1.42.91-4a41.49,41.49,0,0,0,.87-4.72,62.49,62.49,0,0,0,.71-6.33,68.49,68.49,0,0,0,.23-7.75,89.11,89.11,0,0,0-.56-8.91,89.3,89.3,0,0,0-13.72-38.31,88.51,88.51,0,0,0-5.23-7.23,67.64,67.64,0,0,0-5.09-5.85,63.63,63.63,0,0,0-4.58-4.44,40.84,40.84,0,0,0-3.67-3.1l-3.22-2.49s1,1.08,2.75,3c.9.94,2,2.12,3.12,3.57s2.57,3,3.89,4.91,2.89,3.88,4.32,6.19,2.93,4.77,4.47,7.38a122.66,122.66,0,0,1,13.23,36.93c.47,3,1,5.84,1.24,8.54s.48,5.21.59,7.52.09,4.41.11,6.26A47.33,47.33,0,0,1,7360.54,7022.92Z" transform="translate(-6677.61 -6702.06)"/><path d="M7389.56,7028.06c-1.2,2.55-1.93,3.95-1.93,3.95s1-1.24,2.55-3.61a68.14,68.14,0,0,0,5.73-10.66,71.56,71.56,0,0,0-11.71-75.84,68.82,68.82,0,0,0-8.68-8.44c-2.23-1.78-3.52-2.67-3.52-2.67s1.12,1.11,3,3.18a85.05,85.05,0,0,1,18.77,83A85.18,85.18,0,0,1,7389.56,7028.06Z" transform="translate(-6677.61 -6702.06)"/><path d="M7385.91,6888.5c3.53,4.35,7.54,7.05,11,9.46a78.31,78.31,0,0,1,9,6.65,20.17,20.17,0,0,1,5.17,6.88,15.18,15.18,0,0,1,1.28,6.52,11.71,11.71,0,0,1-1,4.26,9.18,9.18,0,0,1-.76,1.4,11,11,0,0,0,3.44-5.35,16.62,16.62,0,0,0,.38-7.8A23.14,23.14,0,0,0,7410,6901c-4.48-6.34-12.29-11.36-16.52-17.95a17.49,17.49,0,0,1-2.64-10.92c.06-.38.11-.33.14-.36a.12.12,0,0,1,.1,0c.05,0,.06.11.06.11h0l.32.25a31.05,31.05,0,0,0,4.15,2.61,65.14,65.14,0,0,0,7.93,3.35,64.64,64.64,0,0,1,6.5,2.64,24.64,24.64,0,0,1,5,3.34,25.44,25.44,0,0,1,8.74,19.49,28.72,28.72,0,0,1-7.79,18.75l-1.16,1.17,1.46-.79a26.18,26.18,0,0,0,3.89-2.81,28.89,28.89,0,0,0,9.15-15.62c1.83-7.8,0-18.55-7.65-26.89a31.69,31.69,0,0,0-6.7-5.5,60.91,60.91,0,0,0-7.47-3.71,71.25,71.25,0,0,1-6.61-3.12,21.25,21.25,0,0,1-2.69-1.78,12.85,12.85,0,0,1-1.25-1.09,9.47,9.47,0,0,1-1.42-1.74,37.79,37.79,0,0,1-2.66-6.28c-.78-2.06-1.55-4.12-2.3-6.11l-6.48,10.3a26.1,26.1,0,0,0-2.73,6.24,28.81,28.81,0,0,0-1.16,7.1,27.18,27.18,0,0,0,1.43,9.15A25.45,25.45,0,0,0,7385.91,6888.5Z" transform="translate(-6677.61 -6702.06)"/><path d="M6990.55,6952.59a32,32,0,0,1,9.48-10.74c4.82-3.76,11.53-6.81,19.33-11a60.1,60.1,0,0,0,12-8.28,39.27,39.27,0,0,0,5.46-6.21c.55-.78.53-.73.63-.86s.09-.09.14-.13a.3.3,0,0,1,.13,0c.09,0,.09.43.08.37h0c0,.06,0-.15,0,0s0,.6.06.91a22.45,22.45,0,0,1-.67,7,24.63,24.63,0,0,1-7,11.63,26.65,26.65,0,0,1-11.46,6.1c-4.31,1.24-8.84,2.1-12.9,3.59a26.66,26.66,0,0,0-10.14,6.07,16,16,0,0,0-4.25,7.81c-.93,4.89.95,7.2.79,7.16,0,0,0-.15-.08-.46a8.8,8.8,0,0,1-.12-1.33,10.89,10.89,0,0,1,1.07-4.83,14,14,0,0,1,4.87-5.65,23.93,23.93,0,0,1,9.33-3.37c3.73-.68,8-.81,13-1.51a33.16,33.16,0,0,0,15.88-6.3,32.55,32.55,0,0,0,11.28-15.87,31.39,31.39,0,0,0,1.46-10.5c0-.45,0-.9-.06-1.35s-.12-1.55-.24-2.22c-.28-1.43-.5-2.95-.91-4.3a34.62,34.62,0,0,0-3-7.41c-2.41-4.24-5-6.72-7.86-10.36l-.55-.66-.27-.33-.05-.06h0s-.13-.12-.2-.18-.09-.07-.33-.34l-1.54-1.7-3.39-3.91q.35,7.3.69,14.55l-.1,3.62-.05,1.8c0,.28,0,.62,0,.86l-.16.5-.64,2-.32,1-.38.74c-.5,1-1.09,2.16-1.26,2.37a32.36,32.36,0,0,1-3.72,5A60.84,60.84,0,0,1,7015,6924c-6.82,4.89-13.59,9.42-18.07,14.54a31.53,31.53,0,0,0-7.67,13.61,21.78,21.78,0,0,0-.59,4.1c0,.93,0,1.42,0,1.42l.38-1.36A23,23,0,0,1,6990.55,6952.59Z" transform="translate(-6677.61 -6702.06)"/><path d="M7127.32,6838.32a45.28,45.28,0,0,0,25.57-50,41.2,41.2,0,0,0-2.64-8.53c-.85-1.91-1.43-2.91-1.43-2.91s-.1,1.15-.3,3.19-.57,4.9-1.22,8.31a93.33,93.33,0,0,1-23.21,45.43c-2.37,2.52-4.49,4.52-6,5.86l-2.41,2.11s1.15-.12,3.2-.55A41.09,41.09,0,0,0,7127.32,6838.32Z" transform="translate(-6677.61 -6702.06)"/><path d="M7225.66,6730.3a60.12,60.12,0,0,0,17.25,29.8c5.11,4.77,10.47,8,14.92,10.92a71.46,71.46,0,0,1,11.06,8.36,31.33,31.33,0,0,1,5.84,7.46,24,24,0,0,1,1.55,3.33,16.4,16.4,0,0,0,.13-3.81,26.23,26.23,0,0,0-3-10.24,46.92,46.92,0,0,0-9.7-12.46c-4.17-4-8.93-7.72-13.18-11.73a120.69,120.69,0,0,1-19.73-23.77c-2.18-3.47-3.83-6.45-4.93-8.56s-1.71-3.31-1.71-3.31-.06,1.33,0,3.76A55.8,55.8,0,0,0,7225.66,6730.3Z" transform="translate(-6677.61 -6702.06)"/><path d="M7490.13,7005.71a74.86,74.86,0,0,1-5-7.44,75.33,75.33,0,0,1-8.81-53.05,74.94,74.94,0,0,1,2.28-8.64c.71-2.07,1.1-3.23,1.1-3.23a32.7,32.7,0,0,0-2.58,2.3,40.55,40.55,0,0,0-6,7.45,44.87,44.87,0,0,0-5.62,13.31,44.27,44.27,0,0,0,5.78,34.77A44.77,44.77,0,0,0,7481,7002a40.54,40.54,0,0,0,8.07,5.12,33.38,33.38,0,0,0,3.18,1.34Z" transform="translate(-6677.61 -6702.06)"/><path d="M7090.74,7112.89l-.52-.56.18.73a10.84,10.84,0,0,1-1.83,8.52,8.38,8.38,0,0,1-7.47,3.14,6,6,0,0,1-2-.59,8.89,8.89,0,0,1-1-.5l-.45-.33-.23-.15-.62-.53c-1.66-1.15-3.36-3.69-5.58-8.41q-2.19-5.25-4.4-10.61-3.27-8-6.57-16.06c-.22,3.56-.44,7.25-.67,11,0,1.94-.06,3.86-.09,5.74v7.44a86.3,86.3,0,0,0,1.18,14.61c.49,2.46.95,4.83,1.57,7l.24.81.16.48.33.95.72,1.82a59.29,59.29,0,0,0,3,6.41,55.51,55.51,0,0,0,5.68,8.44c1.52,1.84,2.45,2.78,2.45,2.78l-.89-3.57c-.57-2.26-1.28-5.54-2-9.52-.33-2-.66-4.16-.92-6.48-.07-.58-.13-1.17-.2-1.77l-.08-.9,0-.46,0-.13a1.7,1.7,0,0,1,.3-.66c.47-.6,1,.44,1,.49a1.37,1.37,0,0,1-.11-.38c.05-.13-.05-.32.56-.19l.13,0,.59.26,1.17.47a16.49,16.49,0,0,0,2.42.61,13.66,13.66,0,0,0,4.81.06c6.12-1,10-5.46,11.08-9.42a11.92,11.92,0,0,0-.8-8.76A9.82,9.82,0,0,0,7090.74,7112.89Z" transform="translate(-6677.61 -6702.06)"/><path d="M7364.31,7115.74c-.16-2.48-.32-5-.48-7.56-.31-4.08-.62-8.12-.92-12.08l-6.26,15.52-1.87,4.63-.87,2.18a3.65,3.65,0,0,1-.36.71l-.31.52-1.24,2.09c-.4.51-.78.81-1.16,1.22a12.66,12.66,0,0,1-2.35,1.78,11.63,11.63,0,0,1-3.6,1.44,13.38,13.38,0,0,1-7.41-.57c-4.65-1.63-7.71-6-9.22-10.37a52.72,52.72,0,0,1-2.41-11.13c-.32-2.78-.5-4.32-.5-4.32s-.47,1.48-1.1,4.24a41.43,41.43,0,0,0-1.07,12.27,24.08,24.08,0,0,0,2.43,8.94,20.07,20.07,0,0,0,7.86,8.39,21.07,21.07,0,0,0,19.76.86c.08,0,.09.06.09.1a.22.22,0,0,1,0,.06s.1-.24.26-.19a.24.24,0,0,1,.12.09l.06.09s.05,0,0,.6c-.11,1.74-.32,3.44-.53,5.1a84.31,84.31,0,0,1-4.39,17.55,81.58,81.58,0,0,1-5.28,11.49c-.69,1.36-1.37,2.33-1.76,3l-.63,1.07,1-.75c.62-.52,1.64-1.21,2.76-2.28a55.62,55.62,0,0,0,8.86-10,62.18,62.18,0,0,0,8.67-18.16c.52-1.85,1-3.76,1.37-5.75a17.84,17.84,0,0,0,.33-2.19l.25-2.71a44.45,44.45,0,0,0,.31-5.44c0-1.74,0-3.56-.09-5.31S7364.4,7117.5,7364.31,7115.74Z" transform="translate(-6677.61 -6702.06)"/><path d="M7382.19,7107.8c-1.69-4.33-3.58-8.22-5.29-11.83-3.46-7.2-6.07-13.47-6.95-19.17a32.88,32.88,0,0,1-.38-8.53,29.66,29.66,0,0,1,5.47-10.94l5.57-7.25-8.12,4.32c-7.92,4.2-14.43,10.7-19.48,17.87-1.25,1.76-2.43,3.55-3.56,5.37a77.38,77.38,0,0,0,1.71-18.69,46.9,46.9,0,0,0-5.15-19.13A84.52,84.52,0,0,0,7335,7023.9c-8.17-9.66-16.81-18.52-21.44-29.43-4.79-11-7.35-23.09-6.54-34.83l1.52-21.86-8.45,20.21a102.23,102.23,0,0,0-7.19,27,87.36,87.36,0,0,0-.51,15.18c-7.66-8.44-15.75-16.37-23.59-24.36-10.77-11-21.16-22.18-29.24-34.82a114.57,114.57,0,0,1-16.28-41.42,108.49,108.49,0,0,1,1.16-44.32l7.83-32.82-15.69,29.85c-.45.86-.85,1.75-1.28,2.63-9.84,18.67-19.71,37.26-30.49,55.25-11.31,18.79-23.63,36.95-37.73,53.63a288.49,288.49,0,0,1-22.39,23.85c-3.88,3.83-8,7.38-12.14,11s-8.46,7.48-12.34,11.56a114.6,114.6,0,0,0-19.86,27.63,88.67,88.67,0,0,0-6,14.84l-3.42-22.44-.76-5c.07-.36.23-1.14.47-2.34a62.89,62.89,0,0,1,1.95-7.29,84.67,84.67,0,0,1,12.74-24.09c6.8-9.31,16.5-18.94,28.38-28.7s25.73-20,38.8-33.13a217.38,217.38,0,0,0,31.87-40.69,221.84,221.84,0,0,0,18.29-37.84,212.29,212.29,0,0,0,8-27c.75-3.23,1.16-5.78,1.51-7.48s.49-2.61.49-2.61l-3.67,9.57c-2.44,6.12-6.17,14.88-11.47,25.28a291,291,0,0,1-52.95,72.86c-12.35,12.4-25.73,23.05-37.17,34a187.58,187.58,0,0,0-15.5,16.44,119.06,119.06,0,0,0-11.29,16.27,78.79,78.79,0,0,0-9.75,26.72,56.5,56.5,0,0,0-.73,7.64c0,1,0,1.68,0,2.12l-1.42-9.29-3.28,14.34c-5.75,25.07-15.53,49.51-20.1,75.5-2.26,12.94-3,26.4-.59,39.51a74,74,0,0,0,11.85,28.42l-18.23-13.65-2.49-1.87,1.3,2.81c3.25,7,5.44,14.45,8.3,21.71s6.77,14.2,12.38,19.62c-5.42-5.62-9.08-12.62-11.62-19.91-2.25-6.38-4-13-6.55-19.33l22.45,17.75,8.86,7-7.22-8.72a71.63,71.63,0,0,1-15.67-34.43c-2.05-12.61-.87-25.54,1.52-38.14,4-20.87,11.53-40.93,17.61-61.65l3.64,26.77,3.48,25.62,2.73-25.78a83,83,0,0,1,9.28-30.3c4.9-9.47,11.6-17.95,19-25.73,3.76-3.9,7.71-7.41,11.88-11s8.48-7.25,12.49-11.17a295.92,295.92,0,0,0,23.07-24.31c14.52-17,27.17-35.44,38.73-54.42,7.48-12.34,14.49-24.91,21.35-37.53l.29.07a117.29,117.29,0,0,0,1.95,24.25,122.56,122.56,0,0,0,17.66,44.26c8.68,13.41,19.53,24.94,30.46,35.95s22.06,21.63,31.68,33.36l10.44,12.72-3.89-16a73.24,73.24,0,0,1-1.31-25.51c.27-2.35.65-4.68,1.11-7a90.93,90.93,0,0,0,6.1,18.38,76.16,76.16,0,0,0,10.51,16.47c4,5,8.38,9.54,12.41,14.19a78.58,78.58,0,0,1,10.55,14.64,41,41,0,0,1,4.8,16.73c.74,11.93-2.58,24-5.86,36l-6.38,23.33,10.92-21.54c3.88-7.65,7.62-15.29,12.36-22.17a59.88,59.88,0,0,1,10.79-12.09,27.92,27.92,0,0,0-1.79,6.66,32.77,32.77,0,0,0-1.33,7.63c-.51,6.64,1.17,14.58,3.77,22.4,1.28,3.93,2.72,7.9,4,11.9s2.42,8.23,3.29,12.55a91.6,91.6,0,0,1,2.21,24.48,76.31,76.31,0,0,1-4,20c-.91,2.84-2.05,5.29-3,7.53s-1.95,4.05-2.75,5.58c-1.67,3-2.59,4.71-2.6,4.71h0l4-3.67c1.23-1.24,2.66-2.84,4.34-4.73a70.3,70.3,0,0,0,5-7,62.51,62.51,0,0,0,8.3-21.19,71.32,71.32,0,0,0-.63-28A91.84,91.84,0,0,0,7382.19,7107.8Z" transform="translate(-6677.61 -6702.06)"/><path d="M7225.07,6983.52a30,30,0,0,1-8.84-31.89l4.06-12.18-11,6c-.12-1.43-.23-2.84-.37-4.29-.53-5.75-1.15-11.33-1.83-16.68l-3.2-25.15-7.11,24a259.48,259.48,0,0,1-14.89,38.58c-2.27,4.71-4.22,8.46-5.59,11s-2.14,4-2.14,4,1.16-1.09,3.22-3.19,4.93-5.26,8.28-9.46a137.14,137.14,0,0,0,12.46-18.73c.31,3.13.64,6.22,1,9.21l1,8.69,5.33-3.38a35.31,35.31,0,0,0,3.86,13.43,32.71,32.71,0,0,0,13.36,13.54,31.42,31.42,0,0,0,11.5,3.64,22.87,22.87,0,0,0,3.15.18h1.09a32,32,0,0,1-3.94-1.37A33.57,33.57,0,0,1,7225.07,6983.52Z" transform="translate(-6677.61 -6702.06)"/><path d="M6817.27,7061.71c31-172.83,171.71-308.08,347.23-330.87v-14.26c-183.32,23-330.29,164.48-361.6,345.13Z" transform="translate(-6677.61 -6702.06)"/><path d="M6800,7185.57a417.57,417.57,0,0,0,53.48,158.82q5.64-4.37,11.47-8.53a403.59,403.59,0,0,1-50.7-150.29Z" transform="translate(-6677.61 -6702.06)"/><path d="M7616.91,7061.71h14.38c-31.9-184.08-183.91-327.51-372.11-346.31v14.21C7439.57,6748.26,7585.26,6885.45,7616.91,7061.71Z" transform="translate(-6677.61 -6702.06)"/><path d="M7620,7185.57a403.27,403.27,0,0,1-51.35,151.52q5.91,3.91,11.78,7.86a417.31,417.31,0,0,0,53.81-159.38Z" transform="translate(-6677.61 -6702.06)"/><path d="M6864.67,7061.71c27.24-133.54,128.69-240.4,259.25-275.44v-8.78c-135.25,35.4-240.37,146-267.89,284.22Z" transform="translate(-6677.61 -6702.06)"/><path d="M6852.63,7185.57a365.34,365.34,0,0,0,43.91,129l7.16-4.57a357.23,357.23,0,0,1-42.5-124.47Z" transform="translate(-6677.61 -6702.06)"/><path d="M7569.49,7061.71h8.64c-28.63-143.85-141.3-257.76-284.52-288.15v8.68C7432.14,6812.37,7541.1,6922.55,7569.49,7061.71Z" transform="translate(-6677.61 -6702.06)"/><path d="M7573,7185.57a357.26,357.26,0,0,1-42.42,124.3c2.41,1.52,4.72,3.16,7,4.89a365.72,365.72,0,0,0,44-129.19Z" transform="translate(-6677.61 -6702.06)"/><text class="cls-1" transform="translate(0 466)">GRILL</text><text class="cls-1" transform="translate(838.64 466)"><tspan class="cls-2">2</tspan><tspan class="cls-3" x="49.18" y="0">0</tspan><tspan x="105.8" y="0">22</tspan></text><text class="cls-4" transform="translate(347.37 837.49)">C<tspan class="cls-5" x="84.5" y="0">OOK</tspan></text><text class="cls-6" transform="translate(366.24 938.93)">WITH US</text><rect x="219.78" y="904.42" width="60.18" height="4.01"/><rect x="798.99" y="904.42" width="60.18" height="4.01"/><path d="M7290.56,7359.1c-1.62-1.24-4.14-1.21-6.45-.66a14.68,14.68,0,0,0-8.49-8.58c3.79-2.52,7.52-5.14,11.15-7.95,5.22-4,5.94-11.5,3.81-17.61a8.94,8.94,0,0,0,3.35-6.52c0-2.81-2.8-5.91-5.74-6-2,0-3.89,1.38-5.4,3.09-6.46-3.49-14.08-1.57-20,3a130.09,130.09,0,0,1-45.59,22.51,135.81,135.81,0,0,1-45.51-27.77,16.31,16.31,0,0,0-19.68-2.37,6.84,6.84,0,0,0-4.4-2.42c-2.94-.1-5.88,2.84-6.06,5.65a8.4,8.4,0,0,0,2.15,5.78c-2.38,5.47-1.82,12,4,17.36,3,2.79,6.18,5.43,9.37,8-5.4,1.06-8.79,4.9-10.19,9.65a6.25,6.25,0,0,0-4.25.75c-2.43,1.65-3.06,5.77-1.55,8.13a8.86,8.86,0,0,0,6.36,3.59,17.55,17.55,0,0,0,14.86,11.64,163.64,163.64,0,0,0,53.44-2.85,170.41,170.41,0,0,0,53.3,7.16,16,16,0,0,0,15.65-12.15c2.69-.16,5.41-1.11,7-3.27S7292.89,7360.88,7290.56,7359.1Zm-130.86-7.32a18.64,18.64,0,0,0-4.09,3.5,24.19,24.19,0,0,0-1.67,2.06,14.56,14.56,0,0,0-2.41,5.14,5,5,0,0,1-.62-.64,7,7,0,0,1-1.18-2.18,8.1,8.1,0,0,1-.1-4.73,8.24,8.24,0,0,1,9.76-5.93,6.93,6.93,0,0,1,2.28.95,6.22,6.22,0,0,1,.71.55A13.76,13.76,0,0,0,7159.7,7351.78Zm74.57-11.75c5.06-1.95,9.8-4,14.06-6s8-4.06,11.1-5.91,5.61-3.39,7.28-4.56l2.65-1.76-2.08,2.42a66.23,66.23,0,0,1-6.2,6.17,80.17,80.17,0,0,1-10.48,7.78,88.28,88.28,0,0,1-14.34,7.09c-.36.14-.71.25-1.07.38-3.26-.7-6.47-1.55-9.66-2.48C7228.36,7342.19,7231.28,7341.16,7234.27,7340Zm-78.9-23.61a14.44,14.44,0,0,0-2.53,1.06,13.35,13.35,0,0,0-2.45,1.66,5.45,5.45,0,0,1-.12-.89,7,7,0,0,1,.34-2.45,8.13,8.13,0,0,1,2.71-3.88,8.23,8.23,0,0,1,11.38,1A7,7,0,0,1,7166,7315a5.77,5.77,0,0,1,.24.86,13.57,13.57,0,0,0-2.91-.55,18.59,18.59,0,0,0-5.37.4A22.17,22.17,0,0,0,7155.37,7316.42Zm111,40.3c-.8.19-1.79.38-2.87.57-1.64.27-3.56.53-5.78.74a78.75,78.75,0,0,1-13,.08,88.46,88.46,0,0,1-15.76-2.76,92.59,92.59,0,0,1-13.36-4.86q-2.88-1.29-5.45-2.63c-2.79-1.46-5.3-2.92-7.45-4.27l-.07,0c-3.11-2-5.55-3.69-7.18-4.94l-2.53-1.95,11,4.39c1.28.5,2.68,1,4.13,1.57,2.76,1,5.8,2.13,9.09,3.23,2.69.91,5.53,1.82,8.49,2.71,1.59.47,3.19.94,4.84,1.4,5.23,1.42,10.26,2.57,14.89,3.47s8.86,1.47,12.45,1.8,6.33.56,8.35.62h.21l3.19.15Z" transform="translate(-6677.61 -6702.06)"/></svg>